<?xml version="1.0" encoding="UTF-8" standalone="no"?>
<svg
   xmlns:dc="http://purl.org/dc/elements/1.1/"
   xmlns:cc="http://creativecommons.org/ns#"
   xmlns:rdf="http://www.w3.org/1999/02/22-rdf-syntax-ns#"
   xmlns:svg="http://www.w3.org/2000/svg"
   xmlns="http://www.w3.org/2000/svg"
   viewBox="0 0 233.72874 76.844498"
   height="76.844498"
   width="233.72874"
   xml:space="preserve"
   version="1.1"
   id="svg2"><metadata
     id="metadata8"><rdf:RDF><cc:Work
         rdf:about=""><dc:format>image/svg+xml</dc:format><dc:type
           rdf:resource="http://purl.org/dc/dcmitype/StillImage" /></cc:Work></rdf:RDF></metadata><defs
     id="defs6"><clipPath
       id="clipPath20"
       clipPathUnits="userSpaceOnUse"><path
         id="path22"
         d="m 0,61.476 186.983,0 L 186.983,0 0,0 0,61.476 Z" /></clipPath><clipPath
       id="clipPath32"
       clipPathUnits="userSpaceOnUse"><path
         id="path34"
         d="m 0,61.476 186.983,0 L 186.983,0 0,0 0,61.476 Z" /></clipPath></defs><g
     transform="matrix(1.25,0,0,-1.25,0,76.8445)"
     id="g10"><text
       id="text12"
       style="font-variant:normal;font-weight:500;font-stretch:normal;font-size:14.5px;font-family:'BentonSans Medium';-inkscape-font-specification:BentonSans-Medium;writing-mode:lr-tb;fill:#241d10;fill-opacity:1;fill-rule:nonzero;stroke:none"
       transform="matrix(1,0,0,-1,122.562,23.1709)"><tspan
         id="tspan14"
         y="0"
         x="0 9.4250002 17.36665 24.64855 32.5322 40.410049 45.993999 53.555752">Research</tspan></text>
<g
       id="g16"><g
         clip-path="url(#clipPath20)"
         id="g18"><g
           transform="translate(112.7983,21.9229)"
           id="g24"><path
             id="path26"
             style="fill:#241d10;fill-opacity:1;fill-rule:nonzero;stroke:none"
             d="m 0,0 c 0,0 -0.191,-0.558 -0.329,-0.995 -0.241,-0.755 -0.769,-2.788 -0.894,-3.42 -0.183,-0.938 -0.707,-3.394 -0.736,-3.447 -0.036,-0.071 -0.06,-0.095 -0.15,-0.15 -0.215,-0.128 -0.302,-0.085 -0.564,0.054 -0.34,0.179 -0.639,0.362 -0.896,0.697 -0.511,0.666 -0.388,1.919 -0.287,2.655 0.351,2.57 0.705,3.702 1.685,6.26 0.016,0.043 0.015,0.053 -0.004,0.092 -0.305,0.65 -0.469,1.434 -0.469,2.067 0.002,2.007 1.155,3.991 2.447,5.584 C -0.1,9.52 0.534,10.279 0.824,10.264 1.112,10.25 1.159,9.913 1.116,9.632 0.971,8.704 0.318,7.762 -0.127,6.981 -0.628,6.108 -0.737,5.748 -0.982,4.947 -1.021,4.821 -1.119,4.238 -1.116,4.161 c 0.011,-0.214 0.057,-0.485 0.057,-0.485 0,0 0.816,1.141 1.354,1.846 C 0.589,5.907 0.8,6.163 1.044,6.44 1.292,6.721 2.248,7.713 2.524,7.975 3.101,8.527 3.358,8.756 3.984,9.08 4.48,9.337 4.924,9.401 5.408,9.081 6.173,8.577 6.506,7.514 6.593,6.651 6.694,5.618 6.484,4.458 6.029,3.575 5.489,2.523 4.751,1.764 3.749,1.1 2.724,0.421 1.523,-0.042 0.345,-0.013 0.187,-0.01 0,0 0,0 M 4.765,7.358 C 4.164,6.855 3.39,5.83 3.019,5.299 2.526,4.594 2.061,3.786 1.617,3.159 1.52,3.02 1.233,2.517 1.242,2.5 1.262,2.464 1.551,2.476 1.848,2.526 2.48,2.633 3.34,3.075 3.799,3.442 4.498,4.002 4.986,4.772 5.214,5.674 5.318,6.082 5.368,6.941 5.078,7.322 5.021,7.396 4.877,7.453 4.765,7.358 M -9.95,0.89 c -0.07,0.054 -0.186,0.172 -0.271,0.265 -0.012,0.014 -0.25,0.37 -0.297,0.479 -0.041,0.094 -0.072,0.162 -0.102,0.24 -0.215,0.558 -0.21,1.106 -0.091,1.704 0.112,0.558 0.217,0.582 0.503,1.349 0.016,0.042 0.028,0.078 0.034,0.124 0.011,0.105 -0.16,0.811 -0.168,1.038 -0.012,0.347 0.256,0.592 0.706,0.64 0.042,0.004 0.073,0.003 0.101,0.01 0.181,0.045 0.294,0.389 0.393,0.665 0.136,0.387 0.35,0.978 0.35,0.978 0,0 -0.569,0.131 -0.873,0.246 -0.34,0.128 -0.595,0.294 -0.751,0.605 -0.182,0.366 -0.062,0.568 0.318,0.687 0.141,0.044 1.246,0.256 1.594,0.306 0.435,0.063 0.843,0.118 1.257,0.169 0.361,0.044 2.011,0.235 2.538,0.221 0.8,-0.023 1.32,-0.352 1.789,-1.03 C -2.669,9.223 -2.497,8.792 -2.876,8.56 -3.461,8.204 -5.351,8.179 -5.699,8.175 -6.25,8.168 -7.014,8.179 -7.014,8.179 L -7.399,6.893 c 0,0 1.356,0.012 2.116,0.016 0.185,0 0.371,-0.009 0.474,-0.032 0.39,-0.087 0.523,-0.385 0.54,-0.815 C -4.249,5.558 -4.343,5.325 -4.745,5.259 -4.952,5.226 -7.279,5.213 -7.596,5.176 -7.792,5.153 -8.001,5.122 -8.001,5.122 c 0,0 -0.167,-0.438 -0.312,-0.882 -0.15,-0.461 -0.276,-0.931 -0.276,-0.931 0,0 0.119,-0.006 0.216,-0.006 0.165,0 0.33,0.022 0.46,0.045 0.711,0.13 1.766,0.286 2.632,0.423 0.467,0.074 0.701,0.108 0.945,-0.202 C -4.123,3.296 -4.012,3.067 -3.998,2.738 -3.986,2.428 -4.221,2.221 -4.512,2 -5.427,1.3 -6.993,0.54 -8.158,0.411 -8.697,0.351 -8.828,0.409 -9.3,0.533 c -0.09,0.024 -0.416,0.175 -0.413,0.193 0,0 -0.177,0.118 -0.237,0.164 m -9.082,-0.156 c -0.659,0.242 -0.807,1.305 -0.838,1.843 -0.103,1.752 0.359,4.19 0.946,5.83 0.168,0.47 0.411,1.233 0.934,1.19 0.36,-0.032 0.617,-0.31 0.818,-0.595 0.517,-0.727 1.195,-1.716 1.645,-2.401 0.505,-0.771 0.986,-1.546 1.462,-2.248 0.057,-0.085 0.113,-0.167 0.178,-0.22 0.084,-0.07 0.164,-0.073 0.198,-0.009 0.016,0.026 -0.015,0.91 -0.038,1.089 -0.036,0.28 -0.054,0.51 -0.085,0.754 -0.088,0.708 -0.313,1.704 -0.489,2.378 -0.196,0.754 -0.435,1.539 -0.613,2.269 -0.056,0.237 -0.108,0.476 -0.107,0.701 0.001,0.327 0.21,0.507 0.552,0.385 0.668,-0.236 1.557,-1.69 1.816,-2.196 0.086,-0.17 0.436,-1.037 0.516,-1.28 0.275,-0.833 0.444,-1.623 0.521,-2.531 0.074,-0.882 0.013,-2.169 -0.361,-3.038 -0.137,-0.322 -0.418,-0.751 -0.652,-0.968 -0.367,-0.339 -1.098,-0.606 -1.601,-0.319 -0.552,0.313 -1.457,1.881 -1.611,2.15 -0.527,0.918 -1.43,2.712 -1.57,2.913 -0.032,0.046 -0.071,0.087 -0.141,0.108 -0.052,0.016 -0.074,-0.094 -0.088,-0.167 -0.089,-0.522 -0.152,-2.967 -0.154,-3.034 -0.014,-0.41 -0.035,-1.421 -0.154,-1.916 -0.077,-0.325 -0.155,-0.592 -0.454,-0.728 -0.211,-0.095 -0.372,-0.055 -0.63,0.04 m -5.091,6.103 c 0.046,-0.005 0.056,-0.007 0.1,-0.013 0.744,-0.101 1.474,-0.235 2.033,-0.485 0.519,-0.229 0.822,-0.518 1.099,-1.034 0.422,-0.784 0.45,-1.88 0.069,-2.709 -0.284,-0.618 -0.909,-1.136 -1.481,-1.411 -0.592,-0.288 -1.176,-0.424 -1.845,-0.499 -1.171,-0.129 -2.436,0.112 -3.489,0.622 -0.624,0.305 -1.385,0.829 -1.769,1.504 -0.282,0.496 -0.273,1.139 0.071,1.609 0.547,0.749 1.719,0.914 2.603,0.883 0.674,-0.025 1.886,-0.234 2.525,-0.461 0.178,-0.064 0.832,-0.319 0.946,-0.435 0.08,-0.082 0.133,-0.2 0.096,-0.309 -0.146,-0.448 -1.232,-0.684 -1.545,-0.73 -0.84,-0.128 -1.276,0.189 -2.23,0.566 -0.237,0.093 -0.553,0.195 -0.794,0.218 -0.433,0.041 -0.956,-0.08 -1.039,-0.553 -0.041,-0.244 0.245,-0.471 0.463,-0.567 0.512,-0.221 0.928,-0.299 1.432,-0.307 1.488,-0.023 3.161,0.221 4.378,1.084 0.167,0.118 0.33,0.294 0.332,0.511 0,0.031 -0.039,0.265 -0.115,0.291 -0.011,0.004 -0.023,-0.002 -0.033,0.001 -0.028,0.007 -0.073,0.085 -0.114,0.134 -0.087,0.107 -0.441,0.26 -0.508,0.289 -0.821,0.342 -2.337,0.508 -3.118,0.573 -0.819,0.07 -2.108,0.178 -2.417,0.222 -0.319,0.046 -0.665,0.11 -0.941,0.234 -0.277,0.125 -0.548,0.405 -0.628,0.715 -0.143,0.558 0.039,1.245 0.35,1.692 0.813,1.17 2.717,1.614 4.142,1.79 1.378,0.171 3.606,0.169 4.958,-0.55 0.209,-0.11 0.316,-0.216 0.272,-0.439 -0.087,-0.419 -0.403,-0.69 -0.785,-0.809 -0.4,-0.126 -1.229,-0.177 -1.594,-0.198 -1.631,-0.093 -3.604,-0.045 -5.156,-0.469 -0.123,-0.035 -0.333,-0.091 -0.401,-0.167 -0.244,-0.264 0.451,-0.339 0.6,-0.371 0.044,-0.009 0.053,-0.011 0.099,-0.016 l 3.434,-0.406 m -10.48,0.458 c 0.053,-0.487 -0.072,-1.407 -0.094,-1.528 -0.039,-0.279 -0.25,-0.924 -0.285,-1.003 -0.17,-0.392 -0.338,-0.714 -0.516,-1.033 -0.305,-0.549 -1.029,-1.418 -1.459,-1.79 -1.6,-1.383 -4.075,-2.17 -6.2,-2.429 -1.442,-0.174 -3.098,-0.148 -4.625,0.134 -0.526,0.096 -1.308,0.276 -1.308,0.276 0,0 0.003,-0.313 -0.023,-0.533 -0.012,-0.1 -0.088,-0.365 -0.13,-0.45 -0.111,-0.23 -0.293,-0.348 -0.558,-0.399 -0.32,-0.06 -0.66,-0.079 -0.955,0.047 -0.485,0.205 -0.66,0.66 -0.744,1.182 -0.069,0.42 -0.14,1.148 -0.14,1.148 0,0 -0.363,0.173 -0.667,0.322 -0.93,0.46 -1.814,1.014 -2.586,1.586 -0.214,0.158 -1.134,0.929 -1.337,1.122 -0.569,0.538 -1.082,1.078 -1.471,1.768 -0.303,0.539 -0.39,1.018 -0.16,1.588 0.318,0.796 1.459,1.395 2.24,1.738 0.574,0.252 2.356,0.834 3.097,0.942 0.35,0.05 0.892,0.147 0.926,0.17 0.013,0.009 0.023,0.019 0.033,0.031 0.017,0.023 0.045,0.812 0.04,1.099 -0.007,0.284 0.21,2.145 0.279,2.539 0.037,0.212 0.198,1.032 0.363,1.248 0.107,0.145 0.298,0.134 0.453,0.038 0.849,-0.528 1.108,-2.36 1.171,-3.293 0.037,-0.567 0.056,-1.421 0.056,-1.421 0,0 0.974,0.028 1.575,0.012 0.582,-0.014 1.224,-0.107 1.829,-0.203 0.773,-0.124 2.282,-0.453 3.147,-0.891 0.713,-0.362 1.38,-0.97 1.596,-1.614 0.2,-0.592 0.171,-1 -0.135,-1.533 -0.344,-0.601 -0.995,-1.048 -1.654,-1.085 -0.196,-0.012 -0.935,0.086 -1.162,0.262 -0.089,0.071 -0.084,0.196 -0.02,0.282 0.024,0.032 0.369,0.213 0.573,0.322 0.102,0.055 0.187,0.115 0.266,0.187 0.17,0.15 0.322,0.314 0.306,0.506 -0.024,0.25 -0.288,0.403 -0.54,0.504 -1.182,0.468 -3.54,0.859 -4.681,0.926 -0.446,0.026 -1.081,0.047 -1.081,0.047 l 0.134,-6.294 c 0,0 0.525,-0.1 0.939,-0.167 0.237,-0.036 1.242,-0.126 1.509,-0.133 2.035,-0.054 4.306,0.127 6.172,1.01 0.82,0.385 1.572,0.865 2.14,1.515 0.751,0.86 1.144,2.038 1.04,3.267 -0.114,1.344 -1.06,2.937 -1.813,3.908 -1.995,2.565 -5.413,4.674 -8.42,5.911 -3.07,1.261 -6.104,1.988 -9.363,2.108 -0.84,0.032 -2.671,-0.012 -3.597,-0.266 -0.132,-0.038 -0.265,-0.083 -0.389,-0.111 -0.096,-0.022 -0.249,-0.086 -0.291,-0.121 -0.023,-0.019 -0.046,-0.044 -0.046,-0.044 0,0 0.057,-0.031 0.111,-0.055 0.099,-0.042 0.511,-0.069 0.725,-0.107 0.191,-0.037 0.39,-0.137 0.469,-0.278 0.074,-0.133 0.084,-0.237 -0.006,-0.348 -0.21,-0.256 -0.999,-0.213 -1.347,-0.157 -0.361,0.058 -0.811,0.168 -0.893,0.483 -0.096,0.37 0.08,0.733 0.27,1.069 0.382,0.673 0.929,1.021 1.731,1.24 1.137,0.312 2.575,0.531 3.65,0.572 2.432,0.093 4.734,-0.332 7.09,-1.048 1.349,-0.408 3.116,-1.092 4.409,-1.715 0.927,-0.448 2.389,-1.269 3.21,-1.808 0.259,-0.171 1.774,-1.284 2.01,-1.479 0.49,-0.403 1.133,-0.979 1.598,-1.441 0.9,-0.891 2.019,-2.258 2.563,-3.342 0.131,-0.26 0.232,-0.515 0.401,-0.817 0.057,-0.103 0.307,-0.72 0.347,-0.898 0.042,-0.177 0.102,-0.435 0.11,-0.446 0.012,-0.095 0.127,-0.625 0.118,-0.829 m -17.039,0.72 c 0,0 -0.929,-0.066 -1.569,-0.137 -0.813,-0.087 -2.342,-0.351 -3.225,-0.668 -0.264,-0.094 -0.802,-0.318 -0.849,-0.59 -0.049,-0.283 0.126,-0.504 0.321,-0.732 0.112,-0.132 0.75,-0.745 0.928,-0.895 0.749,-0.625 2.268,-1.59 3.388,-2.057 0.384,-0.16 1.02,-0.388 1.02,-0.388 0,0 -0.048,1.811 -0.039,3.595 0.005,0.94 0.025,1.872 0.025,1.872 m 19.346,2.224 c 0.037,-0.007 0.095,-0.024 0.144,-0.042 0.428,-0.164 0.605,-0.561 0.711,-0.996 0.245,-1.012 0.349,-3.251 0.389,-4.129 0.03,-0.656 0.047,-1.305 0.074,-1.955 0.023,-0.55 0.068,-1.284 -0.047,-1.799 -0.041,-0.186 -0.166,-0.401 -0.344,-0.512 -0.204,-0.13 -0.667,-0.14 -0.922,-0.087 -0.627,0.131 -0.832,0.533 -0.921,1.154 -0.213,1.482 -0.111,4.391 0.015,5.617 0.042,0.405 0.195,1.702 0.406,2.247 0.073,0.184 0.227,0.553 0.495,0.502 m -1.093,1.887 c -0.082,-0.086 -0.17,-0.299 -0.26,-0.45 -0.048,-0.082 -0.138,-0.187 -0.197,-0.229 -0.209,-0.153 -0.384,-0.16 -0.587,0.017 -0.281,0.248 -0.444,0.636 -0.456,1.01 -0.005,0.165 0.022,0.344 -0.008,0.483 -0.052,0.233 -0.285,0.472 -0.411,0.695 -0.148,0.264 -0.266,0.72 -0.281,1.016 -0.051,0.921 0.435,1.769 1.065,2.439 0.636,0.675 1.467,1.239 2.371,1.621 0.854,0.362 2.105,0.605 3.043,0.282 0.306,-0.106 0.731,-0.366 0.945,-0.637 0.045,-0.058 0.082,-0.12 0.129,-0.149 0.042,-0.026 0.151,-0.037 0.238,-0.053 0.299,-0.052 0.731,-0.278 0.906,-0.43 0.353,-0.304 0.547,-0.596 0.636,-1.018 0.18,-0.852 -0.31,-1.786 -0.868,-2.355 -0.957,-0.977 -1.901,-1.665 -3.124,-2.145 -0.537,-0.21 -1.374,-0.406 -1.983,-0.351 -0.189,0.016 -0.384,0.066 -0.568,0.079 -0.094,0.007 -0.438,0.096 -0.475,0.122 -0.046,0.033 -0.104,0.066 -0.115,0.053 m 2.037,1.496 c 0.8,0.055 1.55,0.286 2.247,0.673 0.685,0.382 1.691,1.128 1.587,2.007 -0.033,0.284 -0.218,0.498 -0.453,0.599 -0.305,0.132 -0.464,0.109 -0.854,-0.005 -0.283,-0.084 -0.411,-0.134 -0.678,-0.288 -0.785,-0.455 -1.898,-1.431 -2.501,-2.21 -0.141,-0.183 -0.281,-0.389 -0.392,-0.53 -0.07,-0.086 -0.124,-0.165 -0.117,-0.187 0.024,-0.089 0.849,-0.079 1.161,-0.059 m -2.815,0.753 c 0,0 0.266,0.399 0.488,0.701 0.405,0.551 1.138,1.313 1.69,1.786 0.169,0.143 0.368,0.307 0.368,0.307 0,0 -0.311,-0.032 -0.488,-0.067 -0.418,-0.082 -1.032,-0.491 -1.34,-0.755 -0.506,-0.433 -1.063,-1.139 -0.811,-1.764 0.036,-0.089 0.093,-0.208 0.093,-0.208" /></g></g></g><g
       id="g28"><g
         clip-path="url(#clipPath32)"
         id="g30"><g
           transform="translate(48.0444,15.4521)"
           id="g36"><path
             id="path38"
             style="fill:#241d10;fill-opacity:1;fill-rule:nonzero;stroke:none"
             d="M 0,0 C -0.291,0.943 -0.747,1.833 -1.347,2.6 -1.947,3.362 -2.695,4.009 -3.556,4.417 -4.41,4.828 -5.399,4.965 -6.286,4.723 -7.187,4.503 -7.903,3.865 -8.35,3.155 -8.599,2.763 -8.781,2.347 -8.918,1.928 c -0.232,-0.6 -0.423,-1.38 -0.543,-2.15 -0.166,-0.982 -0.28,-1.968 -0.457,-2.614 -0.022,-0.056 -0.04,-0.108 -0.062,-0.161 -0.147,0.105 -0.302,0.192 -0.46,0.261 -0.303,0.128 -0.606,0.186 -0.893,0.191 -0.06,0.003 -0.118,0.003 -0.178,10e-4 -0.113,-10e-4 -0.224,-0.014 -0.333,-0.037 -0.972,1.109 -2,2.135 -2.886,2.915 0.621,0.354 1.088,0.855 1.375,1.226 0.252,0.266 0.392,0.461 0.397,0.461 0.015,0.022 0.018,0.05 0.007,0.073 -0.097,0.228 -0.174,0.442 -0.241,0.647 -0.128,0.564 -0.269,1.411 -0.213,2.256 0.384,0.553 0.788,1.267 1.029,2.074 0.153,0.46 0.243,0.923 0.292,1.363 0.127,0.749 0.17,1.55 0.093,2.346 0.217,-0.048 0.437,-0.075 0.662,-0.077 0.079,-0.083 0.167,-0.158 0.26,-0.226 0.461,-0.331 0.994,-0.448 1.498,-0.425 0.488,0.005 0.987,0.144 1.414,0.43 0.482,0.317 0.836,0.831 0.992,1.386 0.395,-0.049 0.87,0.023 1.256,0.339 0.315,0.254 0.485,0.629 0.556,1.022 0.066,0.054 0.127,0.105 0.186,0.162 0.079,0.078 0.152,0.161 0.217,0.247 0.13,0.16 0.243,0.348 0.323,0.562 0.203,0.514 0.24,1.152 0.076,1.778 0.009,0.008 0.017,0.015 0.021,0.027 0.202,0.438 0.336,0.869 0.406,1.284 0.018,0.087 0.035,0.18 0.05,0.276 0.068,0.481 0.059,1.089 -0.217,1.672 -0.264,0.581 -0.865,1.064 -1.527,1.201 -1.301,0.281 -2.581,0.105 -3.541,0.073 -0.127,-0.011 -0.249,-0.017 -0.366,-0.024 -0.31,-10e-4 -0.615,0 -0.916,0.01 -0.382,0.2 -0.787,0.366 -1.22,0.481 -0.793,0.227 -1.642,-0.036 -2.3,-0.403 -0.126,-0.064 -0.246,-0.139 -0.362,-0.216 -0.373,0.014 -0.697,0.042 -0.984,0.086 0.16,0.079 0.311,0.163 0.448,0.252 0.346,0.177 0.767,0.449 1.124,0.829 0.193,0.058 0.387,0.121 0.575,0.195 1.56,0.541 2.957,1.838 3.271,3.432 0.14,0.645 0.126,1.303 -0.033,1.898 0.495,0.417 0.91,1.088 1.073,2.055 0.285,1.692 -0.957,2.767 -1.992,2.73 -1.035,-0.032 -1.659,-1.149 -1.731,-2.63 -0.003,-0.066 -0.009,-0.157 -0.015,-0.265 -0.151,-0.011 -0.298,-0.031 -0.442,-0.059 -0.046,1.038 -0.325,2.248 -1.012,3.395 -0.714,1.215 -1.884,2.332 -3.367,3.046 -1.202,0.587 -2.602,0.91 -4.038,0.885 1.263,1.244 1.826,2.963 1.317,4.565 -0.766,2.414 -3.688,3.64 -6.523,2.738 -2.836,-0.899 -4.513,-3.589 -3.744,-6.005 0.531,-1.671 2.089,-2.772 3.939,-2.997 -0.28,-0.209 -0.55,-0.439 -0.802,-0.687 -1.077,-1.042 -1.839,-2.402 -2.188,-3.835 -0.92,1.951 -2.793,3.18 -4.753,2.909 -2.512,-0.349 -4.216,-3.021 -3.808,-5.967 0.408,-2.947 2.773,-5.055 5.283,-4.709 1.645,0.227 2.944,1.452 3.529,3.098 0.154,-0.44 0.343,-0.857 0.56,-1.248 1.486,-2.714 4.041,-4.149 6.076,-4.639 -0.274,-0.037 -0.606,-0.056 -1.087,-0.143 -0.156,-0.021 -0.324,-0.048 -0.5,-0.08 -1.246,-0.215 -2.885,-0.708 -4.37,-1.507 -1.072,-0.583 -2.073,-1.292 -2.852,-2.022 -0.853,0.156 -1.787,-0.077 -2.388,-0.648 -0.019,-0.019 -0.036,-0.037 -0.054,-0.053 -0.092,0.002 -0.182,0.002 -0.27,10e-4 -0.556,0 -1.222,-0.089 -1.906,-0.361 -0.888,-0.332 -1.758,-0.987 -2.41,-1.809 -0.655,-0.818 -1.098,-1.837 -1.143,-2.801 -0.038,-0.721 0.116,-1.425 0.452,-1.88 0.096,-0.138 0.204,-0.253 0.325,-0.336 -0.003,-0.02 -0.005,-0.039 -0.01,-0.057 -0.047,-0.471 -0.12,-1.068 0.175,-1.664 0.336,-0.6 0.991,-0.824 1.602,-0.979 0.009,-0.342 0.067,-0.707 0.262,-1.064 0.352,-0.623 1.095,-0.941 1.788,-1.018 0.632,-0.066 1.26,0.049 1.808,0.271 0.524,0.191 1.022,0.495 1.423,0.927 0.403,0.428 0.664,1 0.728,1.593 0.447,-0.062 1.067,-0.098 1.662,0.234 0.686,0.348 1.155,1.148 1.278,1.952 0.26,1.511 -0.326,3.04 -1.035,3.73 0.415,0.435 0.703,1.036 0.709,1.674 0.464,0.318 0.939,0.647 1.435,0.918 0.195,0.117 0.391,0.222 0.591,0.321 0.193,0.095 0.388,0.18 0.587,0.259 1.386,0.603 2.98,0.722 3.871,0.787 0,-0.003 10e-4,-0.006 10e-4,-0.009 0.002,-0.004 0.069,-0.217 0.136,-0.578 0.146,-0.895 0.169,-2.019 -0.153,-3.174 -0.371,-1.413 -1.713,-2.664 -1.962,-4.42 -0.069,-0.338 -0.1,-0.677 -0.108,-1.011 -1.122,-1.04 -2.517,-1.84 -3.912,-2.475 -1.531,-0.691 -3.084,-1.277 -4.602,-1.83 -3.034,-1.099 -6.068,-2.107 -8.226,-3.625 -1.07,-0.742 -1.993,-1.632 -2.341,-2.683 -0.17,-0.521 -0.144,-1.076 0.067,-1.506 0.203,-0.437 0.567,-0.722 0.924,-0.873 0.727,-0.298 1.358,-0.205 1.753,-0.158 0.404,0.065 0.612,0.132 0.612,0.129 0,0.008 -0.212,-0.05 -0.614,-0.093 -0.397,-0.033 -1.025,-0.097 -1.711,0.214 -0.694,0.267 -1.233,1.242 -0.848,2.227 0.352,0.971 1.256,1.799 2.324,2.502 2.147,1.428 4.955,2.43 8.006,3.48 1.528,0.533 3.094,1.085 4.658,1.778 1.287,0.574 2.825,1.108 3.947,2.042 0.108,-1.057 0.428,-2.068 0.755,-2.948 0.159,-0.428 0.303,-0.847 0.425,-1.249 -0.563,-0.509 -1.209,-0.858 -1.831,-1.099 -0.103,0.094 -0.209,0.183 -0.318,0.261 -0.22,0.17 -0.473,0.329 -0.767,0.45 -0.269,0.119 -0.586,0.192 -0.918,0.204 -0.416,0.144 -0.844,0.227 -1.273,0.25 -0.117,0.008 -0.241,0.016 -0.371,0.016 -1.118,-0.043 -2.532,-0.681 -3.561,-1.732 -0.499,-0.502 -0.886,-1.087 -1.177,-1.679 -0.652,-1.216 -0.974,-2.664 -1.006,-4.115 0.014,-1.525 0.511,-3.043 1.437,-4.165 1.017,-1.018 2.289,-1.434 3.362,-1.7 0.949,-0.265 2.085,-0.443 3.307,-0.459 1.239,-0.038 2.592,0.185 3.804,0.737 0.751,0.34 1.468,0.798 2.051,1.369 0.376,0.355 0.714,0.771 0.977,1.257 0.463,0.836 0.465,1.923 0.019,2.709 -0.076,0.144 -0.164,0.276 -0.259,0.397 -0.234,0.342 -0.563,0.663 -0.946,0.891 -0.718,0.437 -1.506,0.6 -2.072,0.659 -0.008,0.002 -0.018,0.002 -0.027,0.006 l -0.063,0.012 -0.002,0 c -0.083,0.124 -0.171,0.248 -0.26,0.37 -0.017,0.031 -0.034,0.062 -0.052,0.094 -0.089,0.156 -0.201,0.334 -0.325,0.52 -0.063,0.089 -0.129,0.177 -0.195,0.269 l -0.006,0.025 -0.021,0.093 c 0,0 -0.037,0.186 -0.034,0.187 0.743,0.208 1.419,0.487 1.95,0.757 0.118,0.059 0.228,0.117 0.333,0.176 0.335,0.163 0.645,0.34 0.921,0.525 0.508,0.005 1.06,0.052 1.613,0.174 1.043,-1 2.572,-2.541 3.958,-4.195 0.198,-0.228 0.387,-0.45 0.572,-0.669 0,-0.018 0,-0.032 10e-4,-0.049 0.005,-0.129 0.016,-0.258 0.031,-0.385 0.074,-0.769 0.377,-1.7 1.202,-2.376 0.082,-0.066 0.166,-0.122 0.254,-0.18 -0.003,-0.112 -0.003,-0.22 -0.002,-0.328 -0.006,-0.552 0.07,-1.231 0.432,-1.895 0.227,-0.42 0.578,-0.811 1.023,-1.086 0.444,-0.291 0.989,-0.412 1.5,-0.456 1.126,-0.092 2.181,0.186 3.068,0.574 0.198,0.081 0.392,0.166 0.583,0.257 1.595,0.79 3.075,2.016 4.207,3.575 1.12,1.562 1.909,3.432 2.148,5.39 C 0.44,-1.958 0.298,-0.934 0,0" /></g><g
           transform="translate(16.9458,21.4604)"
           id="g40"><path
             id="path42"
             style="fill:#ffffff;fill-opacity:1;fill-rule:nonzero;stroke:none"
             d="m 0,0 0.002,0.044 c 0.015,0.016 0.031,0.034 0.047,0.051 0.447,0.48 0.809,1.086 0.97,1.616 0.087,0.265 0.105,0.487 0.101,0.626 0.004,0.08 0,0.264 -0.071,0.298 C 1.041,2.639 1.034,2.648 1.016,2.642 1.008,2.644 1,2.644 0.991,2.638 0.987,2.638 0.986,2.635 0.985,2.635 0.973,2.627 0.967,2.617 0.962,2.614 0.962,2.613 0.959,2.611 0.958,2.608 0.951,2.594 0.949,2.58 0.946,2.555 0.915,2.311 0.836,2.071 0.711,1.838 0.507,1.429 0.131,0.919 -0.317,0.438 -0.49,0.249 -0.676,0.069 -0.854,-0.106 l -0.005,-0.006 c -0.244,-0.234 -0.519,-0.503 -0.715,-0.758 -0.27,-0.343 -0.149,-0.628 -0.118,-0.562 0.064,0.14 0.135,0.238 0.255,0.343 0.132,0.123 0.404,0.247 0.58,0.385 0.101,0.08 0.188,0.152 0.279,0.225 -0.189,-0.738 -0.766,-1.418 -1.56,-1.796 -0.601,-0.258 -1.265,-0.362 -1.864,-0.295 -0.686,0.072 -1.251,0.364 -1.512,0.782 -0.284,0.453 -0.294,1.032 -0.302,1.496 0,0.001 -0.002,0.076 -0.002,0.076 0.043,0.935 -0.123,1.649 -0.212,1.734 -0.006,0.01 -0.014,0.023 -0.035,0.024 -0.004,10e-4 -0.005,0.005 -0.011,0.005 -0.004,0 -0.008,-0.005 -0.012,-0.004 l -0.001,0 c 0.003,-10e-4 0.005,0.003 0.007,0.003 l -0.009,10e-4 c -0.004,0 -0.004,-0.006 -0.006,-0.006 l -10e-4,0 c -0.004,-0.002 -0.006,-0.004 -0.01,-0.005 0,0 -0.002,-0.001 -0.003,-0.001 C -6.116,1.533 -6.121,1.531 -6.125,1.528 L -6.126,1.527 c 0.005,0.004 0.013,0.008 0.021,0.008 0.001,0.001 0.002,0.001 0.002,0.001 l 0,-0.001 c -0.012,0 -0.019,-0.01 -0.028,-0.018 0,0 0,-10e-4 -10e-4,-0.002 -0.002,0 -0.004,0.001 -0.006,0 l 0,-0.003 c 0,0 0,0.003 0,0.004 0,-0.001 0,-0.001 0,-0.001 -0.006,-0.006 -0.007,-0.014 -0.01,-0.023 0,-10e-4 -0.003,-10e-4 -0.003,-0.002 l 0,-0.005 c 0,10e-4 0.002,10e-4 0.002,0.002 0,0 0.001,0 0.001,-0.001 l 0,0.001 c 0,-0.001 0.002,0 0.002,-0.001 l 0,0 c 0,-10e-4 0.001,-10e-4 0.001,-0.002 0,-0.005 -0.001,-0.005 -0.001,-0.008 0,0.003 -0.005,0.001 -0.005,0.003 0,0.002 10e-4,0.002 10e-4,0.005 0,-0.003 -0.002,-0.003 -0.002,-0.005 l 0,-0.011 c 0,-0.003 0,-0.007 0,-0.01 0.001,-0.009 0.003,-0.016 0.006,-0.026 0,-0.003 0.001,-0.007 0.001,-0.007 0.005,-0.021 0.013,-0.048 0.02,-0.086 0.01,-0.06 0.091,-0.629 -0.023,-1.542 0.002,0.012 0.006,0.023 0.016,0.029 -0.016,-0.012 -0.016,-0.012 -0.025,-0.154 0,-0.001 -0.004,-0.072 -0.007,-0.129 -0.633,0.171 -1.034,0.4 -1.21,0.7 -0.266,0.465 -0.251,1.066 -0.241,1.466 0.096,1.314 0.099,1.546 0.063,1.615 l 0,0 c -0.005,0.01 -0.009,0.006 -0.014,0.01 -0.002,0.007 -0.002,0.013 -0.009,0.02 -0.002,0 -0.007,0.003 -0.011,0.005 l -0.003,0 c -0.004,0 -0.005,0.003 -0.006,0.003 l 10e-4,0 c 0,0 -0.004,0 -0.004,10e-4 -0.001,-10e-4 0,-10e-4 0,-10e-4 -0.001,0 -0.002,0 -0.002,10e-4 l 0.002,0 c -0.006,0.002 -0.009,0.007 -0.021,0.007 0.003,0 0.003,-0.005 0.005,-0.005 -0.005,0 -0.008,0 -0.013,0.003 -0.037,-0.003 -0.068,-0.031 -0.07,-0.068 0,-0.018 0.002,-0.032 0.01,-0.045 C -7.689,3.26 -7.691,3.264 -7.692,3.27 -7.687,3.227 -7.741,2.916 -7.793,2.614 L -7.803,2.562 -7.882,2.108 c -0.045,0.049 -0.091,0.096 -0.13,0.155 -0.247,0.408 -0.354,1.048 -0.285,1.709 0.086,0.844 0.486,1.756 1.133,2.564 0.62,0.779 1.405,1.404 2.212,1.755 0.676,0.306 1.301,0.408 1.744,0.441 C -3.6,8.218 -3.793,7.556 -3.702,6.974 c 0.02,-0.156 0.056,-0.313 0.107,-0.47 0.329,-1.117 1.347,-1.833 2.654,-1.858 0.136,-0.009 0.282,-0.007 0.443,0 C 0.024,4.677 0.792,4.82 1.481,5.322 1.548,5.368 1.623,5.431 1.705,5.5 1.98,5.146 2.214,4.639 2.353,4.055 2.515,3.384 2.543,2.694 2.434,2.051 2.31,1.283 1.922,0.637 1.4,0.326 0.922,0.019 0.408,-0.012 0,0" /></g><g
           transform="translate(15.9883,30.7422)"
           id="g44"><path
             id="path46"
             style="fill:#ffffff;fill-opacity:1;fill-rule:nonzero;stroke:none"
             d="m 0,0 c -0.129,-0.135 -0.253,-0.27 -0.357,-0.4 -0.126,-0.173 -0.226,-0.354 -0.301,-0.543 -0.267,-0.575 -0.245,-1.111 0.066,-1.587 0.218,-0.337 0.766,-0.657 1.493,-0.618 0.136,0.002 0.27,0.017 0.398,0.04 0.587,0.117 1.15,0.445 1.68,0.79 -0.118,-0.494 -0.404,-0.973 -0.812,-1.287 -0.586,-0.467 -1.269,-0.638 -1.738,-0.7 -0.15,-0.018 -0.31,-0.03 -0.477,-0.03 -1.114,0.045 -1.965,0.628 -2.275,1.561 -0.05,0.16 -0.081,0.33 -0.092,0.501 -0.053,0.623 0.245,1.302 0.76,1.732 C -1.228,-0.171 -0.629,0.018 0,0" /></g><g
           transform="translate(24.7549,11.0659)"
           id="g48"><path
             id="path50"
             style="fill:#ffffff;fill-opacity:1;fill-rule:nonzero;stroke:none"
             d="M 0,0 C 0.006,0 0.041,-0.009 0.108,-0.024 0.491,-0.107 1.655,-0.357 2.638,-0.971 2.979,-1.174 3.284,-1.43 3.525,-1.712 3.608,-1.831 3.679,-1.951 3.732,-2.062 4.096,-2.776 4.07,-3.674 3.668,-4.406 3.435,-4.84 3.118,-5.25 2.728,-5.625 2.214,-6.094 1.563,-6.513 0.845,-6.837 -1.47,-7.903 -4.168,-7.654 -6.024,-7.257 -6.929,-7 -8.243,-6.542 -9.171,-5.558 c -0.8,1.008 -1.284,2.473 -1.293,3.916 0.033,1.451 0.343,2.802 0.897,3.906 0.332,0.616 0.725,1.149 1.164,1.587 0.928,0.953 2.212,1.65 3.273,1.776 0.156,0.013 0.309,0.015 0.454,0.01 0.1,-0.006 0.231,-0.033 0.35,-0.053 C -4.349,5.578 -4.371,5.575 -4.394,5.567 -5.074,5.368 -5.667,4.868 -5.979,4.229 -6.31,3.581 -6.389,2.791 -6.194,2.061 c 0.187,-0.725 0.652,-1.365 1.272,-1.762 0.701,-0.449 1.461,-0.543 1.976,-0.543 0.648,-0.001 1.295,0.232 1.729,0.627 0.223,0.198 0.407,0.434 0.548,0.706 0.039,0.069 0.072,0.152 0.107,0.233 L -0.56,1.311 -0.448,1.069 C -0.45,1.073 -0.39,1.005 -0.39,1.005 -0.389,1.001 -0.268,0.873 -0.268,0.873 L -0.011,0.599 0.164,0.408 0.234,0.336 C 0.232,0.336 0.266,0.299 0.265,0.301 0.303,0.25 0.334,0.204 0.368,0.154 0.266,0.158 0.146,0.162 0.007,0.155 -0.153,0.141 -0.124,0.036 0,0" /></g><g
           transform="translate(22.7783,15.8701)"
           id="g52"><path
             id="path54"
             style="fill:#ffffff;fill-opacity:1;fill-rule:nonzero;stroke:none"
             d="m 0,0 c 0.061,-0.043 0.112,-0.088 0.165,-0.131 -0.329,-0.112 -0.677,-0.212 -1.044,-0.292 -0.207,-0.027 -0.431,-0.053 -0.648,-0.075 -0.102,-0.01 -0.2,-0.024 -0.296,-0.035 0.061,0.11 0.125,0.192 0.153,0.22 0.003,0.001 0.003,0.004 0.006,0.005 0.003,0.005 0.004,0.007 0.007,0.011 0.006,0.008 0.011,0.014 0.015,0.022 -0.005,-0.009 -0.013,-0.017 -0.021,-0.02 0.013,0.006 0.029,0.02 0.029,0.053 l 0,0.007 0,0.007 c -0.003,0.013 -0.014,0.018 -0.022,0.027 -0.004,0.008 -0.005,0.015 -0.01,0.02 -0.001,0.002 -0.005,-0.001 -0.007,0 -10e-4,0.002 -10e-4,0.003 -0.004,0.005 0.002,-0.002 0.001,-0.003 0.003,-0.005 -0.014,0.01 -0.031,0.008 -0.046,0 0,0 -0.001,0.002 -0.002,0.002 0,0 0,0.001 10e-4,0.001 0.013,0.01 0.03,0.01 0.044,0.002 0,0.002 0,0.003 -0.002,0.003 0,0 0,-0.001 0.002,-0.003 -0.007,0.005 -0.015,0.009 -0.029,0.009 -0.008,0 -0.013,-0.001 -0.025,-0.004 -0.002,0 -0.004,-0.002 -0.005,-0.002 -0.001,-0.001 -0.001,0 -0.001,0 -0.002,-0.001 -0.005,-0.003 -0.008,-0.005 0,0 -10e-4,-0.001 -0.003,-0.001 0,0.001 0,0.001 0,0.001 l 0,-0.001 -0.001,0 c -10e-4,0 0,0 -10e-4,-0.002 -0.108,-0.045 -0.386,-0.235 -0.526,-0.656 -0.161,-0.449 -0.162,-1.182 0.195,-1.814 0.123,-0.247 0.32,-0.449 0.584,-0.598 0.094,-0.066 0.203,-0.126 0.321,-0.178 0.628,-0.225 1.288,-0.142 1.817,-0.075 0.002,0 0.005,10e-4 0.006,10e-4 0.177,0.03 0.33,0.059 0.481,0.092 C 1.116,-3.434 1.105,-3.458 1.094,-3.482 0.95,-3.75 0.763,-3.979 0.536,-4.157 c -0.39,-0.322 -0.937,-0.492 -1.498,-0.467 -0.455,0.017 -1.122,0.119 -1.719,0.519 -0.513,0.343 -0.896,0.888 -1.053,1.493 -0.164,0.614 -0.105,1.279 0.161,1.829 0.254,0.537 0.724,0.955 1.288,1.145 C -1.314,0.729 -0.437,0.293 0,0" /></g><g
           transform="translate(33.1143,19.0913)"
           id="g56"><path
             id="path58"
             style="fill:#e11c2a;fill-opacity:1;fill-rule:nonzero;stroke:none"
             d="m 0,0 c 0.001,0.002 -0.01,-0.001 -0.021,-0.009 -0.173,-0.107 -1.169,-0.621 -2.182,-0.648 -0.325,0.209 -0.655,0.4 -0.98,0.565 -0.024,0.182 -0.079,0.424 -0.216,0.595 -0.125,0.192 -0.287,0.357 -0.416,0.49 -0.249,0.238 -0.539,0.462 -0.883,0.69 -0.224,0.142 -0.453,0.272 -0.681,0.387 -0.265,0.135 -0.295,0.132 -0.314,0.132 -0.01,0 -0.02,-0.004 -0.028,-0.01 C -5.728,2.186 -5.742,2.173 -5.747,2.153 -5.753,2.142 -5.758,2.13 -5.753,2.112 -5.749,2.083 -5.736,2.075 -5.667,2.026 l 0.033,-0.022 c 0.127,-0.087 0.391,-0.267 0.715,-0.523 0.294,-0.238 0.533,-0.453 0.746,-0.674 0,0.001 0,0.002 0,0.002 C -4.164,0.795 -4.15,0.778 -4.117,0.74 -3.95,0.559 -3.8,0.364 -3.708,0.166 -3.715,0.168 -3.722,0.172 -3.728,0.174 l -0.069,0.033 c -0.483,0.211 -1.234,0.495 -2.064,0.645 -0.024,0.003 -0.034,0.005 -0.037,0.005 0.003,0 0.004,-0.002 0.006,-0.002 -0.003,0 -0.007,-0.002 -0.01,0 -0.084,0.005 -0.094,-0.074 -0.091,-0.083 0,-0.001 0.002,-0.001 0.002,-0.002 0,-0.009 0.005,-0.014 0.008,-0.02 -0.002,0.001 -0.006,0 -0.007,0.002 C -5.988,0.75 -5.985,0.751 -5.983,0.747 -5.982,0.745 -5.982,0.74 -5.979,0.738 -5.962,0.716 -5.944,0.711 -5.84,0.682 l 0.01,-0.003 c 0.255,-0.079 0.932,-0.288 1.775,-0.715 0.566,-0.283 1.18,-0.661 1.777,-1.096 0.332,-0.242 0.643,-0.49 0.925,-0.735 0.148,-0.128 0.299,-0.266 0.45,-0.407 0.008,-0.009 0.017,-0.015 0.025,-0.025 -0.844,0.234 -2.148,-0.02 -3.336,-0.686 -0.392,-0.204 -0.767,-0.427 -1.13,-0.645 -0.691,-0.41 -1.344,-0.797 -1.879,-0.908 -0.044,-0.006 -0.096,-0.007 -0.148,-0.01 -0.003,0.103 -0.005,0.205 -0.014,0.321 -0.019,0.515 -0.114,1.121 -0.278,1.795 -0.002,0.003 -0.002,0.003 -0.002,0.004 l 0,-0.004 c 0,0.003 0,0.003 0,0.003 -0.002,0.008 -0.002,0.014 -0.002,0.016 0,-0.002 0,-0.004 0,-0.007 0,10e-4 0,10e-4 0,10e-4 l 0,0.002 0,0.003 c 0,0.003 0,0.007 -0.002,0.011 -0.119,0.48 -0.272,0.997 -0.456,1.54 -0.492,1.474 -0.905,3.058 -0.593,4.641 0.114,0.878 0.553,1.657 0.978,2.407 0.001,0.005 0.007,0.016 0.007,0.016 0.355,0.63 0.721,1.282 0.895,1.985 0.043,0.178 0.075,0.364 0.105,0.553 0.089,-0.147 0.188,-0.288 0.315,-0.399 0.323,-0.287 0.769,-0.516 1.365,-0.7 0.98,-0.295 2.166,-0.392 3.429,-0.289 C -1.466,7.07 -1.204,6.83 -0.872,6.672 -0.09,6.316 0.715,6.495 1.126,6.634 1.523,6.768 1.9,6.983 2.277,7.286 2.362,7.249 2.436,7.217 2.505,7.192 2.594,6.363 2.571,5.502 2.432,4.629 2.352,4.241 2.255,3.881 2.147,3.563 1.942,2.859 1.494,1.723 0.521,0.292 0.522,0.294 0.496,0.256 0.496,0.256 0.463,0.21 0.449,0.186 0.453,0.151 0.463,0.071 0.53,0.086 0.53,0.086 0.538,0.086 0.551,0.09 0.558,0.093 0.587,0.11 0.625,0.145 0.769,0.297 0.852,0.388 0.979,0.532 1.125,0.708 1.187,0.074 1.351,-0.49 1.489,-0.851 1.559,-1.079 1.645,-1.313 1.743,-1.55 1.683,-1.625 1.574,-1.759 1.407,-1.936 0.889,-2.379 0.391,-2.726 -0.076,-2.971 l -0.117,0.102 c 0,0.2 -0.011,0.398 -0.105,0.632 -0.023,0.07 -0.101,0.171 -0.153,0.216 0.003,-10e-4 -0.118,0.109 -0.118,0.109 -0.034,0.032 -0.069,0.066 -0.105,0.094 -0.024,0.021 -0.045,0.04 -0.066,0.061 l -0.074,0.062 c -0.236,0.207 -0.51,0.418 -0.799,0.627 0.512,0.122 0.938,0.349 1.201,0.53 0.187,0.126 0.397,0.327 0.47,0.399 C 0.132,-0.067 0.181,0.082 0,0" /></g><g
           transform="translate(24.9961,35.7642)"
           id="g60"><path
             id="path62"
             style="fill:#ffffff;fill-opacity:1;fill-rule:nonzero;stroke:none"
             d="M 0,0 C 0.001,-0.002 0.02,-0.03 0.036,-0.058 L 0.074,-0.12 0.115,-0.187 c 0.071,-0.116 0.178,-0.287 0.302,-0.483 -0.681,0.174 -1.39,0.451 -2.06,0.815 -0.164,0.11 -0.307,0.212 -0.437,0.309 -0.227,0.193 -0.444,0.39 -0.642,0.591 -0.557,0.577 -0.947,1.178 -1.158,1.786 -0.274,0.756 -0.23,1.603 0.12,2.268 0.338,0.661 0.976,1.207 1.754,1.5 0.79,0.305 1.582,0.32 2.109,0.279 C 0.392,6.854 0.673,6.812 0.94,6.755 1.346,6.65 1.756,6.499 2.157,6.312 L 2.377,6.209 C 2.402,6.194 2.438,6.2 2.462,6.222 2.486,6.247 2.489,6.288 2.469,6.315 2.471,6.314 2.348,6.521 2.348,6.521 2.099,6.94 1.872,7.368 1.674,7.788 1.53,8.138 1.422,8.422 1.334,8.681 c -0.668,1.972 -0.82,3.668 -0.45,5.038 0.131,0.455 0.345,0.837 0.62,1.104 0.343,0.336 0.78,0.42 1.087,0.431 C 3.27,15.285 4,15.042 4.763,14.534 5.038,14.347 5.296,14.15 5.528,13.951 5.863,13.628 6.182,13.276 6.473,12.902 l 0.153,-0.196 c 0.002,-0.003 0.004,-0.005 0.007,-0.008 0.021,-0.018 0.048,-0.019 0.073,-0.011 0.033,0.008 0.058,0.036 0.054,0.072 l -0.023,0.25 C 6.722,13.167 6.699,13.507 6.689,13.787 7.435,13.231 8.08,12.547 8.545,11.802 9.303,10.603 9.535,9.401 9.596,8.592 9.474,8.56 9.355,8.522 9.244,8.477 9.239,8.893 9.19,9.31 9.087,9.718 c -0.08,0.33 -0.188,0.625 -0.325,0.899 -0.06,0.114 -0.155,0.282 -0.299,0.431 -0.071,0.09 -0.228,0.184 -0.383,0.181 -0.115,0 -0.21,-0.05 -0.281,-0.148 0.01,0.012 0.023,0.021 0.038,0.021 -0.018,0 -0.048,-0.015 -0.048,-0.053 0,0.007 0.002,0.013 0.004,0.022 C 7.642,10.766 7.674,10.495 7.704,10.233 7.707,10.205 7.709,10.177 7.713,10.149 7.717,10.107 7.721,10.065 7.725,10.026 7.759,9.743 7.808,9.469 7.855,9.205 L 7.873,9.108 C 7.872,9.111 7.872,9.113 7.872,9.116 c 0,-0.005 0,-0.005 0.09,-0.5 C 8.026,8.258 8.077,7.987 8.129,7.747 7.864,7.489 7.708,7.27 7.649,7.187 7.632,7.166 7.58,7.068 7.621,7.037 7.636,7.026 7.663,7.012 7.713,7.04 7.734,7.048 7.752,7.061 7.795,7.104 7.895,7.203 8.2,7.504 8.682,7.793 9.084,8.042 9.628,8.191 10.178,8.213 10.175,7.067 10.501,6.385 11.155,6.195 11.609,6.067 12.159,6.167 12.642,6.453 12.727,5.96 12.716,5.434 12.594,4.926 12.443,4.238 12.066,3.58 11.501,3.022 10.965,2.492 10.287,2.072 9.54,1.805 7.624,1.087 5.382,1.075 3.542,1.773 2.757,2.057 2.064,2.511 1.478,3.123 0.908,3.719 0.582,4.312 0.397,4.728 0.735,4.776 1.073,4.804 1.434,4.805 1.591,4.813 1.526,4.913 1.526,4.913 1.486,4.996 1.061,5.079 1.011,5.089 0.755,5.136 0.364,5.176 -0.044,5.086 -0.836,4.948 -1.337,4.284 -1.355,4.23 -1.363,4.208 -1.358,4.181 -1.344,4.158 -1.342,4.156 -1.34,4.153 -1.337,4.149 c 0.013,-0.012 0.033,-0.021 0.059,-0.021 0.005,0 0.01,0.003 0.015,0.004 0.008,0.003 0.013,0.007 0.02,0.012 l 0.011,0.005 c 0.243,0.155 0.723,0.419 1.245,0.51 C 0.361,4.166 0.582,3.334 0.666,2.177 0.708,1.658 0.774,1.042 0.963,0.398 c 0.216,-0.756 0.54,-1.306 0.99,-1.679 0.499,-0.421 1.246,-0.564 1.949,-0.374 0.657,0.18 1.175,0.552 1.609,0.889 0.239,0.186 0.462,0.374 0.649,0.533 0.568,0.48 1.105,0.93 1.624,1.093 0.002,0 0.002,0 0.004,0.003 C 7.995,0.89 8.16,0.922 8.327,0.956 8.169,0.817 8.01,0.681 7.825,0.545 7.649,0.434 7.456,0.332 7.259,0.243 7.242,0.235 7.222,0.222 7.208,0.204 7.209,0.205 7.211,0.206 7.211,0.207 6.971,-0.043 6.712,-0.295 6.442,-0.536 6.359,-0.604 6.271,-0.675 6.177,-0.748 5.248,-1.485 4.354,-1.939 3.516,-2.092 2.993,-2.197 2.475,-2.128 2.059,-1.901 1.64,-1.684 1.312,-1.34 1.02,-1 0.275,-0.073 0.152,0.066 0.109,0.103 L 0.108,0.104 C -0.016,0.235 -0.059,0.104 0,0" /></g><g
           transform="translate(33.3096,44.917)"
           id="g64"><path
             id="path66"
             style="fill:#ffffff;fill-opacity:1;fill-rule:nonzero;stroke:none"
             d="m 0,0 c -0.071,0.031 -0.146,0.029 -0.208,0.002 -0.002,0.02 -0.01,0.078 -0.01,0.078 -0.039,0.265 -0.077,0.537 -0.106,0.822 l -0.01,0.107 c -0.023,0.265 -0.051,0.573 0.046,0.758 0.02,0.026 0.042,0.037 0.074,0.033 C -0.088,1.788 0.111,1.548 0.213,1.342 0.342,1.095 0.454,0.812 0.544,0.505 0.703,-0.029 0.753,-0.491 0.769,-0.788 0.672,-0.832 0.58,-0.878 0.494,-0.929 0.361,-0.276 0.154,-0.064 0,0" /></g><g
           transform="translate(30.1528,35.1968)"
           id="g68"><path
             id="path70"
             style="fill:#e11c2a;fill-opacity:1;fill-rule:nonzero;stroke:none"
             d="m 0,0 c -0.379,-0.268 -0.836,-0.557 -1.359,-0.687 -0.576,-0.146 -1.179,-0.029 -1.57,0.306 -0.721,0.632 -0.967,1.631 -1.107,2.538 0.643,-0.065 1.275,-0.347 1.621,-0.733 0.217,-0.228 0.385,-0.489 0.5,-0.773 0.026,-0.055 0.035,-0.077 0.068,-0.093 0.006,-0.005 0.013,-0.006 0.02,-0.006 0.013,0 0.021,0.01 0.029,0.018 0.012,0.004 0.024,-0.003 0.033,0.004 0.01,0.012 10e-4,0.025 0.005,0.04 -0.005,-0.007 -0.011,-0.01 -0.017,-0.012 0,0.002 -0.001,0.002 -0.001,0.002 0.008,0.004 0.015,0.011 0.019,0.018 l 0,0.001 c 0,0.002 0.004,0.002 0.005,0.005 0,0.004 0.007,0.004 0.007,0.008 0,0.006 -10e-4,0.01 -0.002,0.018 0,0.004 0,0.007 -10e-4,0.01 C -1.79,0.914 -1.89,1.15 -2.018,1.382 -1.533,1.341 -0.506,1.192 0.013,0.578 0.19,0.361 0.083,0.125 0,0" /></g><g
           transform="translate(37.8345,34.02)"
           id="g72"><path
             id="path74"
             style="fill:#ffffff;fill-opacity:1;fill-rule:nonzero;stroke:none"
             d="M 0,0 C -0.006,0 0.723,0.032 1.376,-0.201 1.599,-0.263 1.841,-0.366 2.097,-0.505 2.237,-0.637 2.36,-0.764 2.479,-0.887 2.363,-0.861 2.242,-0.833 2.142,-0.839 1.917,-0.842 1.743,-0.897 1.678,-0.936 c 0,0 -0.148,-0.132 0.034,-0.139 l 0.001,0 c 0.002,0 0.002,-0.001 0.004,-0.001 0.003,0 0.014,0.004 0.02,0.004 0.105,-0.004 0.711,-0.076 1.155,-0.427 0.139,-0.093 0.283,-0.21 0.426,-0.346 0.11,-0.141 0.212,-0.283 0.305,-0.422 0.49,-0.851 0.773,-1.672 0.838,-2.438 C 4.507,-5.304 4.359,-5.806 4.055,-6.08 3.694,-6.416 3.186,-6.462 2.831,-6.392 c -0.11,0.02 -0.216,0.043 -0.319,0.063 l -0.11,0.024 c 0.002,0 -0.011,0.002 -0.011,0.002 -0.176,0.037 -0.32,0.062 -0.46,0.078 0.28,0.243 0.316,0.289 0.319,0.314 0.008,0.026 -0.003,0.056 -0.028,0.076 C 2.221,-5.834 2.219,-5.834 2.218,-5.833 2.155,-5.793 1.752,-5.83 1.467,-6.057 1.14,-6.295 1.104,-6.733 1.148,-6.8 c 0.013,-0.018 0.029,-0.029 0.047,-0.032 0.018,-0.004 0.034,10e-4 0.05,0.009 0.016,0.007 0.031,0.019 0.037,0.036 -0.002,-0.002 -0.004,-0.006 -0.006,-0.012 0.016,0.025 0.223,0.236 0.439,0.39 0.014,0 0.028,-0.004 0.041,-0.007 0.12,-0.016 0.268,-0.065 0.438,-0.12 L 2.271,-6.561 2.402,-6.604 C 2.468,-6.626 2.537,-6.65 2.606,-6.668 2.378,-7.42 1.69,-8.001 0.87,-8.119 c -0.553,-0.051 -1.077,0.082 -1.476,0.373 -0.395,0.285 -0.659,0.749 -0.707,1.241 -0.047,0.309 -0.004,0.61 0.038,0.902 0.025,0.186 0.048,0.353 0.054,0.524 0.018,0.463 -0.027,0.835 -0.07,1.065 -0.023,0.135 -0.05,0.239 -0.065,0.294 -0.03,0.105 -0.043,0.135 -0.081,0.146 0,0 -0.08,0.021 -0.093,-0.104 l 0.002,-0.011 c 0.05,-0.439 0.042,-0.897 -0.025,-1.362 -0.014,-0.124 -0.045,-0.255 -0.076,-0.395 L -1.639,-5.489 -1.641,-5.5 c -0.071,-0.308 -0.151,-0.656 -0.12,-1.045 0.009,-0.279 0.098,-0.574 0.234,-0.847 -0.627,0.102 -1.24,0.4 -1.65,0.834 -0.27,0.317 -0.435,0.671 -0.489,1.051 -0.143,0.659 -0.12,1.348 -0.101,1.957 l 0.002,0.107 c 0.006,0.193 0.011,0.373 0.008,0.542 0.026,0.61 -0.116,1.101 -0.21,1.236 -0.059,0.102 -0.169,0.066 -0.136,-0.043 0,-0.005 10e-4,-0.01 0.002,-0.017 0,-0.004 0.002,-0.01 0.004,-0.014 l 0.002,-0.007 c 0,0.003 0.006,-0.018 0.006,-0.018 0.004,-0.018 0.107,-0.452 0.003,-1.116 -0.009,-0.093 -0.021,-0.187 -0.033,-0.285 l -0.02,-0.162 c -0.07,-0.535 -0.163,-1.265 -0.06,-2.006 -0.55,-0.096 -1.117,0.115 -1.454,0.553 -0.401,0.475 -0.509,1.122 -0.566,1.749 -0.056,0.583 -0.02,1.161 0.111,1.723 0.151,0.594 0.41,1.133 0.766,1.604 0.415,0.556 0.963,1.023 1.585,1.347 0.769,0.403 1.426,0.518 2.007,0.352 0.508,-0.134 1.019,-0.371 1.547,-0.693 -0.215,10e-4 -0.44,-0.022 -0.479,-0.078 -0.017,-0.028 -0.013,-0.059 0.001,-0.08 0.014,-0.02 0.035,-0.028 0.042,-0.028 -0.006,0 -0.009,0.002 -0.014,0.004 L -0.616,1.107 C -0.103,0.966 0.225,0.836 0.41,0.751 0.569,0.693 0.741,0.613 0.923,0.515 1.018,0.44 1.116,0.357 1.218,0.272 0.978,0.313 0.725,0.326 0.453,0.287 0.3,0.261 -0.043,0.181 -0.08,0.109 -0.08,0.109 -0.142,0.021 0,0" /></g><g
           transform="translate(34.1313,26.0835)"
           id="g76"><path
             id="path78"
             style="fill:#ffffff;fill-opacity:1;fill-rule:nonzero;stroke:none"
             d="m 0,0 c -0.364,-0.09 -1.068,-0.198 -1.702,0.095 -0.326,0.143 -0.576,0.398 -0.649,0.671 -0.053,0.192 -0.017,0.383 0.104,0.549 0.226,0.386 0.549,0.678 0.835,0.923 C -1.07,2.114 -0.699,2.085 -0.366,2.16 -0.244,1.708 -0.002,1.293 0.302,1.019 0.517,0.795 0.77,0.604 1.051,0.449 0.692,0.236 0.348,0.085 0,0" /></g><g
           transform="translate(28.2383,15.1851)"
           id="g80"><path
             id="path82"
             style="fill:#e11c2a;fill-opacity:1;fill-rule:nonzero;stroke:none"
             d="M 0,0 C 0.152,-0.12 0.375,-0.303 0.633,-0.521 -0.193,-0.675 -0.997,-0.722 -1.584,-0.73 -1.079,-0.556 -0.532,-0.287 0,0" /></g><g
           transform="translate(43.1646,31.5132)"
           id="g84"><path
             id="path86"
             style="fill:#ffffff;fill-opacity:1;fill-rule:nonzero;stroke:none"
             d="m 0,0 c 0.221,-0.597 0.24,-1.247 0.058,-1.789 -0.073,-0.222 -0.185,-0.429 -0.338,-0.618 -0.047,-0.054 -0.087,-0.097 -0.127,-0.137 -0.004,-0.002 -0.006,-0.002 -0.007,-0.006 0.009,0.13 0.009,0.258 -0.002,0.385 -0.08,0.873 -0.428,1.748 -1.028,2.6 C -1.809,1.021 -2.283,1.608 -2.854,2.18 -2.246,2.16 -1.625,1.93 -1.1,1.519 -0.577,1.113 -0.187,0.574 0,0" /></g><g
           transform="translate(38.3843,3.1343)"
           id="g88"><path
             id="path90"
             style="fill:#ffffff;fill-opacity:1;fill-rule:nonzero;stroke:none"
             d="m 0,0 c -0.937,0.034 -1.802,0.527 -2.26,1.291 -0.303,0.491 -0.469,1.075 -0.51,1.785 l 0,0.076 C -2.281,2.92 -1.739,2.833 -1.228,2.926 -0.5,3.046 0.186,3.531 0.606,4.22 1.344,5.444 1.354,7.115 0.63,8.375 0.441,8.705 0.185,9.005 -0.109,9.25 c 0.011,0.025 0.021,0.052 0.033,0.08 l 0.019,0.055 c 0.31,0.703 0.539,1.823 0.677,2.638 l 0.022,0.144 0.018,0.114 c 0.109,0.678 0.214,1.321 0.348,1.845 0.145,0.438 0.329,0.825 0.562,1.177 0.479,0.735 1.151,1.233 1.889,1.404 1.736,0.45 3.528,-0.698 4.536,-2.036 C 8.554,13.926 8.993,13.07 9.262,12.193 9.553,11.252 9.648,10.318 9.545,9.419 9.323,7.603 8.614,5.803 7.492,4.216 6.437,2.735 5.042,1.526 3.461,0.717 3.307,0.641 3.139,0.563 2.959,0.484 1.914,0.081 0.917,-0.083 0,0" /></g><g
           transform="translate(34.3062,8.8652)"
           id="g92"><path
             id="path94"
             style="fill:#ffffff;fill-opacity:1;fill-rule:nonzero;stroke:none"
             d="m 0,0 0.15,-0.181 0.615,-0.735 c -0.002,0.004 -0.004,0.006 -0.006,0.009 0.01,-0.018 0.03,-0.031 0.051,-0.031 -0.009,0 -0.017,0.002 -0.024,0.006 0.49,-0.28 1.078,-0.12 1.416,0.147 0.119,0.088 0.232,0.191 0.333,0.309 0.233,0.233 0.431,0.536 0.573,0.872 0.235,0.56 0.298,1.177 0.18,1.734 C 3.265,2.26 3.223,2.402 3.156,2.578 3.157,2.572 3.158,2.566 3.158,2.561 3.158,2.583 3.146,2.593 3.141,2.599 3.145,2.597 3.146,2.593 3.149,2.59 3.068,2.728 3.008,2.798 2.95,2.864 c 0,0 -0.021,0.027 -0.021,0.027 C 2.906,2.917 2.883,2.943 2.859,2.979 2.714,3.16 2.565,3.338 2.419,3.509 L 2.398,3.534 C 2.4,3.531 2.302,3.65 2.302,3.65 c 0,0.002 -0.084,0.097 -0.144,0.166 0.026,0.001 0.053,0.005 0.077,0.007 0.099,10e-4 0.182,0 0.258,-0.01 C 3.098,3.73 3.902,3.327 4.339,2.438 4.619,1.917 4.77,1.271 4.766,0.621 4.76,-0.068 4.583,-0.715 4.258,-1.249 3.906,-1.818 3.348,-2.225 2.764,-2.336 c -0.582,-0.118 -1.223,0.031 -1.718,0.4 -0.828,0.622 -1.092,1.542 -1.18,2.1 L 0,0 Z" /></g><g
           transform="translate(30.4009,44.2949)"
           id="g96"><path
             id="path98"
             style="fill:#241d10;fill-opacity:1;fill-rule:nonzero;stroke:none"
             d="M 0,0 C 0.012,-0.037 0.026,-0.072 0.04,-0.109 0.336,-0.931 0.709,-1.51 1.251,-1.367 1.719,-1.24 1.932,-0.537 1.856,0.444 1.854,0.49 1.852,0.537 1.848,0.583 1.801,1.172 1.656,1.847 1.406,2.543 1.279,2.889 1.126,3.242 0.898,3.568 0.684,3.87 0.35,4.255 -0.146,4.167 -0.409,4.101 -0.516,3.85 -0.567,3.662 -0.618,3.463 -0.632,3.264 -0.638,3.068 -0.642,2.675 -0.593,2.294 -0.532,1.934 -0.402,1.21 -0.202,0.553 0,0" /></g><g
           transform="translate(42.3613,9.4756)"
           id="g100"><path
             id="path102"
             style="fill:#241d10;fill-opacity:1;fill-rule:nonzero;stroke:none"
             d="m 0,0 c 0.006,-0.006 0.01,-0.008 0.015,-0.012 -0.002,0.001 -10e-4,0.004 -0.003,0.004 0.007,0 0.017,-0.01 0.021,-0.01 -0.004,0 -0.009,-0.001 -0.013,0.003 0.01,-0.008 0.02,-0.011 0.028,-0.011 l 0.001,0 0.001,10e-4 c 0.006,0.002 0.01,0.002 0.014,0.003 C 0.061,-0.023 0.059,-0.02 0.056,-0.02 0.072,-0.015 0.089,-0.005 0.091,0.013 0.096,0.028 0.089,0.047 0.076,0.058 l -0.001,0 C 0.006,0.121 -1.033,1.369 -1.665,2.769 -2.387,4.206 -2.855,5.774 -2.859,5.787 -2.856,5.777 -2.861,5.77 -2.867,5.761 -2.861,5.77 -2.856,5.777 -2.86,5.788 -2.863,5.806 -2.876,5.818 -2.892,5.823 -2.91,5.827 -2.928,5.819 -2.94,5.807 c 0.002,0 0,10e-4 0.002,0.004 C -2.94,5.808 -2.94,5.807 -2.941,5.806 l -0.001,0 0,-0.001 C -2.947,5.798 -2.95,5.787 -2.948,5.774 -2.949,5.781 -2.946,5.787 -2.943,5.793 -2.946,5.788 -2.944,5.767 -2.945,5.759 -2.946,5.76 -2.946,5.76 -2.947,5.761 -2.946,5.756 -2.946,5.754 -2.946,5.749 -2.958,5.599 -2.874,5.077 -2.797,4.721 -2.679,4.172 -2.457,3.351 -2.065,2.571 -1.433,1.178 -0.242,0.13 0,0" /></g><g
           transform="translate(11.9272,26.0586)"
           id="g104"><path
             id="path106"
             style="fill:#241d10;fill-opacity:1;fill-rule:nonzero;stroke:none"
             d="m 0,0 c -0.511,-0.532 -0.809,-1.235 -0.793,-1.235 0.002,0.002 0.507,0.529 1,1.039 C 0.689,0.327 1.155,0.902 1.151,0.91 1.147,0.916 0.5,0.536 0,0" /></g><g
           transform="translate(12.5381,28.0269)"
           id="g108"><path
             id="path110"
             style="fill:#241d10;fill-opacity:1;fill-rule:nonzero;stroke:none"
             d="m 0,0 c 0.001,0.013 -0.582,-0.049 -1.073,-0.337 -0.501,-0.274 -0.837,-0.762 -0.825,-0.767 0.007,0 0.496,0.271 0.964,0.521 C -0.474,-0.312 0,-0.005 0,0" /></g><g
           transform="translate(12.668,23.7598)"
           id="g112"><path
             id="path114"
             style="fill:#241d10;fill-opacity:1;fill-rule:nonzero;stroke:none"
             d="M 0,0 C 0.004,0 0.365,0.533 0.655,1.079 0.939,1.635 1.137,2.25 1.132,2.257 1.125,2.262 0.691,1.772 0.404,1.209 0.109,0.65 -0.014,0.002 0,0" /></g><g
           transform="translate(31.23,25.3096)"
           id="g116"><path
             id="path118"
             style="fill:#241d10;fill-opacity:1;fill-rule:nonzero;stroke:none"
             d="m 0,0 c -0.244,0.077 -0.508,0.04 -0.767,-0.102 -0.193,-0.106 -0.375,-0.27 -0.539,-0.473 -0.019,-0.025 -0.039,-0.047 -0.056,-0.07 -0.342,-0.434 -0.597,-1.037 -0.702,-1.717 -0.079,-0.654 -0.108,-1.48 0.477,-2.077 0.312,-0.293 0.824,-0.278 1.142,-0.052 0.325,0.215 0.531,0.526 0.69,0.828 0.308,0.621 0.425,1.254 0.459,1.793 0.002,0.026 0.004,0.055 0.004,0.078 C 0.762,-0.939 0.564,-0.172 0,0" /></g><g
           transform="translate(34.3867,21.5332)"
           id="g120"><path
             id="path122"
             style="fill:#241d10;fill-opacity:1;fill-rule:nonzero;stroke:none"
             d="M 0,0 C 0.211,0.222 0.354,0.481 0.467,0.737 0.687,1.24 0.765,1.763 0.73,2.202 0.72,2.624 0.625,3.028 0.458,3.32 0.346,3.515 0.209,3.639 0.062,3.679 -0.08,3.718 -0.229,3.689 -0.378,3.598 -0.606,3.455 -0.818,3.166 -0.986,2.789 -1.173,2.405 -1.31,1.928 -1.37,1.407 -1.401,1.133 -1.412,0.842 -1.372,0.546 -1.323,0.265 -1.265,-0.09 -0.915,-0.292 -0.531,-0.459 -0.192,-0.207 0,0" /></g><g
           transform="translate(25.1968,10.6289)"
           id="g124"><path
             id="path126"
             style="fill:#241d10;fill-opacity:1;fill-rule:nonzero;stroke:none"
             d="m 0,0 0.003,0 c -0.192,0.095 -2.106,0.292 -3.881,-0.309 -0.979,-0.293 -1.856,-0.782 -2.419,-1.141 -0.326,-0.208 -0.578,-0.392 -0.733,-0.509 -0.29,-0.221 -0.288,-0.233 -0.284,-0.26 0.002,-0.023 0.022,-0.038 0.043,-0.039 0.007,0 0.03,0.014 0.041,0.016 -10e-4,0 0,-10e-4 -10e-4,-0.002 10e-4,0.001 0.007,0.006 0.008,0.007 0.017,0.006 0.028,0.008 0.061,0.026 1.523,0.834 2.7,1.261 3.417,1.474 1.706,0.583 3.598,0.675 3.727,0.647 C 0.087,-0.084 0.062,-0.026 0,0" /></g><g
           transform="translate(31.0483,47.6831)"
           id="g128"><path
             id="path130"
             style="fill:#ffffff;fill-opacity:1;fill-rule:nonzero;stroke:none"
             d="M 0,0 C 0.222,-0.308 0.379,-0.668 0.494,-0.948 0.74,-1.587 0.911,-2.237 0.985,-2.829 0.999,-2.942 1.008,-3.042 1.014,-3.136 1.042,-3.78 0.926,-4.236 0.712,-4.44 c 0.031,0.257 -0.004,0.586 -0.152,0.984 -0.18,0.486 -0.451,0.841 -0.743,0.978 -0.142,0.064 -0.284,0.074 -0.413,0.026 -0.026,-0.01 -0.049,-0.038 -0.072,-0.053 -0.095,0.375 -0.175,0.745 -0.228,1.095 -0.063,0.424 -0.089,0.769 -0.082,1.084 0.01,0.18 0.035,0.734 0.264,0.8 C -0.465,0.528 -0.173,0.253 0,0" /></g><g
           transform="translate(29.877,21.1377)"
           id="g132"><path
             id="path134"
             style="fill:#ffffff;fill-opacity:1;fill-rule:nonzero;stroke:none"
             d="m 0,0 c -0.455,0.448 -0.446,1.302 -0.399,1.772 0.072,0.622 0.274,1.199 0.569,1.624 0.001,0.002 0.002,0.003 0.003,0.005 0,0 0.001,0.001 0.002,0.003 0.003,0.003 0.007,0.008 0.011,0.014 0.001,0.003 0.002,0.006 0.005,0.009 L 0.192,3.429 C 0.348,3.63 0.516,3.781 0.692,3.879 0.896,3.991 1.103,4.021 1.29,3.964 1.68,3.845 1.899,3.232 1.847,2.4 1.845,2.388 1.842,2.371 1.84,2.354 1.839,2.344 1.839,2.334 1.837,2.326 1.783,1.897 1.651,1.262 1.32,0.66 1.138,0.333 0.941,0.109 0.725,-0.026 0.485,-0.183 0.19,-0.172 0,0" /></g><g
           transform="translate(34.3901,24.998)"
           id="g136"><path
             id="path138"
             style="fill:#ffffff;fill-opacity:1;fill-rule:nonzero;stroke:none"
             d="M 0,0 C 0.088,-0.023 0.179,-0.113 0.262,-0.255 0.4,-0.498 0.49,-0.877 0.505,-1.268 c 0,-0.43 -0.116,-0.901 -0.326,-1.324 -0.131,-0.265 -0.271,-0.472 -0.429,-0.63 -0.147,-0.156 -0.37,-0.286 -0.512,-0.215 -0.183,0.09 -0.254,0.459 -0.272,0.571 -0.038,0.24 -0.047,0.495 -0.025,0.782 0.035,0.52 0.142,0.997 0.306,1.382 0.144,0.312 0.314,0.536 0.492,0.648 C -0.17,0.003 -0.081,0.021 0,0" /></g></g></g></g></svg>