<svg xmlns="http://www.w3.org/2000/svg" width="512" height="512" viewBox="0 0 512 512" version="1.1">
	<path d="M 28.195 122.500 C 28.215 124.150, 28.439 124.704, 28.693 123.731 C 28.947 122.758, 28.930 121.408, 28.656 120.731 C 28.382 120.054, 28.175 120.850, 28.195 122.500 M 149.852 126.500 C 150.940 128.790, 151.769 134.469, 152.469 144.443 C 152.975 151.645, 154.617 154.745, 157.367 153.689 C 158.205 153.368, 159.193 151.488, 159.564 149.512 C 160.437 144.856, 156.129 132.700, 151.908 127.911 C 150.255 126.035, 149.330 125.400, 149.852 126.500 M 120.325 144.661 C 121.213 146.379, 123.776 149.239, 126.020 151.016 C 128.265 152.794, 130.867 155.874, 131.802 157.861 C 133.798 162.099, 136.398 162.993, 138.004 159.993 C 139.624 156.966, 137.167 153.623, 130.828 150.229 C 128.024 148.728, 124.150 146.159, 122.220 144.519 L 118.710 141.538 120.325 144.661 M 188.290 146.750 C 177.515 154.138, 173.030 160.042, 178.250 159.968 C 181.019 159.929, 182.473 158.779, 187.219 152.870 C 189.264 150.324, 192.864 147.286, 195.219 146.121 L 199.500 144.002 195.900 144.001 C 193.612 144, 190.840 145.001, 188.290 146.750 M 324 162.412 C 322.625 163.145, 319.256 164.070, 316.513 164.469 C 311.639 165.177, 305.629 168.033, 299.396 172.603 C 297.689 173.854, 294.998 175.018, 293.416 175.189 C 290.719 175.480, 290.501 175.230, 289.946 171.205 C 289.048 164.696, 286.687 162.963, 277.907 162.367 C 271.984 161.965, 269.811 162.229, 267.060 163.682 C 263.093 165.778, 261.921 168, 264.782 168 C 267.250 168, 272 171.682, 272 173.595 C 272 174.392, 273.800 176.997, 276 179.384 C 281.052 184.865, 281.216 187, 276.584 187 C 273.669 187, 272.331 187.917, 267.461 193.250 C 261.631 199.635, 259.749 202.959, 258.648 208.813 C 258.069 211.890, 258.185 212.078, 260.262 211.445 C 261.493 211.070, 263.175 210.235, 264 209.589 C 266.253 207.824, 276 203.707, 276 204.520 C 276 204.783, 274.197 209.001, 271.994 213.895 C 269.205 220.088, 268.217 223.406, 268.744 224.812 C 269.475 226.767, 269.572 226.775, 271.708 225.040 C 272.922 224.054, 275.028 220.733, 276.387 217.659 C 279.260 211.164, 283.889 205, 285.895 205 C 287.009 205, 287.165 206.329, 286.671 211.616 C 286.289 215.716, 286.472 219.014, 287.155 220.289 C 287.969 221.810, 287.914 224.154, 286.946 229.289 C 285.856 235.062, 285.863 237.180, 286.988 241.866 C 287.815 245.311, 288.250 251.968, 288.108 259 C 287.890 269.823, 287.501 274.369, 284.973 295.640 C 284.409 300.392, 284.171 304.504, 284.445 304.779 C 285.290 305.623, 287.095 299.877, 288.529 291.782 C 289.280 287.537, 290.311 283.262, 290.818 282.282 C 292.311 279.400, 293.939 246.706, 294.021 218 C 294.049 208.070, 295.158 201, 296.687 201 C 296.931 201, 298.002 201.466, 299.066 202.035 C 300.536 202.822, 301 204.145, 301 207.545 C 301 210.965, 301.520 212.430, 303.204 213.760 C 310.218 219.297, 312.003 221.735, 311.368 224.911 C 310.778 227.858, 310.875 227.983, 313.122 227.166 C 318.917 225.059, 318.836 216.299, 312.958 209.605 C 309.900 206.122, 309.324 203.590, 311.003 201 C 311.836 199.716, 312.805 199.951, 317.738 202.635 C 324.248 206.177, 332.736 208.342, 338.138 207.839 L 341.776 207.500 338.799 201.215 C 335.507 194.263, 333.103 192.189, 327.356 191.338 C 325.235 191.024, 321.845 189.656, 319.823 188.298 C 317.801 186.940, 314.274 185.578, 311.987 185.271 C 309.699 184.965, 307.592 184.099, 307.304 183.349 C 306.458 181.144, 309.784 177, 312.401 177 C 313.696 177, 315.315 176.325, 316 175.500 C 316.685 174.675, 318.215 174, 319.400 174 C 322.790 174, 325.830 171.272, 326.956 167.221 C 328.780 160.652, 328.415 160.059, 324 162.412 M 152.221 166.127 C 143.674 170.366, 137.527 180.076, 137.510 189.367 C 137.500 195.083, 137.616 195.334, 142 199.117 C 146.768 203.232, 149.689 204.460, 157.070 205.453 C 160.879 205.966, 162.544 205.597, 167.063 203.236 C 170.077 201.661, 173.530 198.870, 174.837 196.951 C 176.948 193.854, 177.146 192.651, 176.773 185.234 C 176.412 178.072, 175.964 176.410, 173.415 172.782 C 167.917 164.961, 159.748 162.395, 152.221 166.127 M 106.500 176.045 C 110.900 178.161, 115.404 180.122, 116.508 180.404 C 119.164 181.082, 121.441 179.591, 120.699 177.659 C 119.562 174.695, 115.500 173.228, 107 172.713 L 98.500 172.198 106.500 176.045 M 192.169 177.133 C 189.447 178.140, 189.399 179.608, 192.041 181.022 C 194.410 182.290, 213.622 181.222, 212.296 179.896 C 210.922 178.522, 194.507 176.268, 192.169 177.133 M 113.667 199.691 C 108.559 201.809, 110.498 202.965, 119.191 202.985 C 126.097 203, 128.058 201.979, 125.964 199.456 C 124.394 197.565, 118.527 197.677, 113.667 199.691 M 182.390 202.426 C 182.058 203.292, 182.011 204.586, 182.286 205.302 C 182.824 206.706, 193.044 212.368, 192.934 211.202 C 192.897 210.816, 191.397 208.475, 189.600 206 C 186.122 201.210, 183.378 199.850, 182.390 202.426 M 407.469 208.408 C 406.306 210.182, 405.914 212.514, 406.155 216.219 L 406.500 221.500 400.043 221.800 C 393.205 222.117, 391 223.141, 391 226 C 391 228.659, 393.264 230.007, 398.843 230.668 C 403.313 231.197, 404.016 231.608, 404.926 234.219 C 405.704 236.449, 405.594 238.036, 404.478 240.708 C 402.369 245.755, 402.641 249.192, 405.482 253.378 C 406.847 255.390, 408.873 259.806, 409.985 263.192 C 411.097 266.579, 412.663 270.075, 413.465 270.961 C 414.267 271.848, 415.606 274.205, 416.439 276.200 C 417.536 278.825, 419.593 280.823, 423.882 283.428 C 429.623 286.916, 440.326 290.008, 441.745 288.588 C 442.623 287.711, 440.271 286.150, 437 285.439 C 430.347 283.994, 422.094 278.012, 419.290 272.602 C 416.122 266.488, 411.700 252.425, 411.712 248.500 C 411.719 246.300, 412.040 242.475, 412.424 240 C 413.896 230.535, 413.570 230.996, 418.769 231.044 C 421.371 231.068, 425.525 231.527, 428 232.064 C 430.475 232.602, 434.300 233.310, 436.500 233.638 L 440.500 234.234 437.912 231.552 C 435.023 228.558, 423.542 224, 418.889 224 C 412.766 224, 411.912 222.749, 412.221 214.233 C 412.459 207.707, 412.249 206.516, 410.813 206.222 C 409.849 206.025, 408.416 206.962, 407.469 208.408 M 470.500 208.945 C 469.400 209.396, 467.601 210.763, 466.502 211.984 C 465.404 213.206, 463.303 214.826, 461.835 215.586 C 458.403 217.360, 452.972 225.399, 452.266 229.748 C 451.793 232.661, 452.180 233.525, 455.109 236.099 C 456.974 237.737, 460.363 239.923, 462.640 240.956 C 464.917 241.989, 467.095 243.345, 467.481 243.969 C 467.867 244.593, 470.857 246.399, 474.125 247.983 C 483.277 252.416, 491.440 259.993, 493.348 265.825 C 496.866 276.579, 493.655 291.490, 486.133 299.328 C 480.572 305.124, 478.405 306.306, 470.270 307.982 C 462.443 309.594, 456.089 308.912, 452.034 306.024 C 447.831 303.031, 446.854 304.323, 450.551 307.984 C 455.028 312.417, 461.228 313.685, 470.722 312.107 C 477.228 311.025, 479.364 310.151, 483.782 306.761 C 489.220 302.588, 492.925 298.341, 496.953 291.667 C 499.698 287.117, 501.484 273.110, 500.103 266.962 C 499.041 262.238, 492.899 252.704, 489.343 250.263 C 487.931 249.293, 484.864 246.813, 482.526 244.750 C 480.189 242.688, 477.830 241, 477.284 241 C 476.739 241, 475.122 239.915, 473.691 238.589 C 472.260 237.263, 469.741 235.882, 468.092 235.520 C 464.562 234.745, 460 231.396, 460 229.580 C 460 228.878, 462.626 225.800, 465.836 222.738 C 470.686 218.112, 472.479 217.051, 476.454 216.455 C 479.201 216.043, 482.703 216.187, 484.679 216.794 C 488.683 218.022, 489.926 216.598, 487.997 212.993 C 485.824 208.933, 476.053 206.673, 470.500 208.945 M 137.917 213.250 C 135.193 215.575, 133.083 218.558, 131.525 222.287 C 129.578 226.945, 130.874 227.021, 135.139 222.500 C 136.955 220.575, 138.946 219, 139.565 219 C 140.184 219, 141.497 218.108, 142.483 217.019 C 143.950 215.397, 144.047 214.762, 143.016 213.519 C 141.484 211.673, 139.865 211.588, 137.917 213.250 M 163.296 212.820 C 160.932 214.287, 161.680 216.894, 165.780 221.482 C 168.135 224.117, 170.314 226.020, 170.623 225.710 C 170.932 225.401, 170.459 222.651, 169.572 219.598 C 167.993 214.168, 165.486 211.461, 163.296 212.820 M 223 215.934 C 215.702 216.784, 211.929 218.957, 207.741 224.720 C 201.300 233.585, 200.811 238.670, 205.132 251.820 C 208.780 262.918, 214.143 265.208, 237 265.425 C 250.534 265.554, 253.589 266.737, 257.461 273.343 C 263.582 283.788, 258.160 296.126, 244.593 302.628 C 238.585 305.507, 236.489 306, 230.256 306 C 224.301 306, 221.808 305.466, 216.728 303.102 C 213.303 301.508, 209.062 298.808, 207.304 297.102 C 203.736 293.638, 203 293.351, 203 295.423 C 203 299.517, 212.061 306.274, 221.841 309.474 C 232.480 312.954, 247.185 309.318, 255.548 301.138 C 270.051 286.955, 266.094 265.288, 248.189 260.847 C 246.160 260.344, 239.251 259.561, 232.836 259.108 C 215.922 257.914, 211.641 254.610, 210.311 241.729 C 209.854 237.301, 210.196 235.546, 212.341 231.313 C 215.464 225.151, 217.976 224.017, 230 223.342 C 237.292 222.932, 238.949 223.148, 241.655 224.859 C 243.622 226.104, 245.064 228.014, 245.486 229.936 C 246.234 233.342, 247.626 233.113, 249.058 229.347 C 250.146 226.486, 248.575 222.793, 244.752 219.223 C 242.617 217.229, 232.990 214.660, 229.500 215.153 C 228.950 215.230, 226.025 215.582, 223 215.934 M 345.381 223.541 C 344.465 224.939, 342.686 231.152, 341.427 237.348 C 340.168 243.544, 338.470 250.388, 337.653 252.557 C 336.836 254.726, 335.948 258.413, 335.679 260.752 C 335.227 264.680, 333.666 269.362, 328.927 281 C 327.919 283.475, 326.799 287.075, 326.439 289 C 326.078 290.925, 324.890 294.113, 323.800 296.085 C 322.710 298.056, 321.971 300.756, 322.159 302.085 C 322.482 304.373, 322.750 304.240, 327.270 299.551 C 330.156 296.556, 332.426 293.101, 333.020 290.801 C 333.559 288.710, 334.437 285.304, 334.971 283.231 C 335.505 281.158, 336.518 278.688, 337.221 277.742 C 339.329 274.907, 349.963 273.636, 369.109 273.929 L 373.719 274 375.859 280.521 C 377.037 284.108, 378 287.458, 378 287.966 C 378 289.744, 385.032 304.301, 385.611 303.722 C 385.933 303.400, 384.115 296.469, 381.572 288.318 C 379.028 280.168, 376.242 271.025, 375.380 268 C 374.518 264.975, 372.538 259.350, 370.980 255.500 C 369.422 251.650, 367.841 247.375, 367.465 246 C 366.107 241.021, 357.464 225.727, 354.689 223.392 C 350.961 220.254, 347.498 220.310, 345.381 223.541 M 100.578 226.250 C 98.375 229.627, 95.310 244.970, 93.480 261.780 C 92.775 268.261, 91.436 270.503, 87.345 272.059 C 84.368 273.191, 84.396 274.084, 87.500 277 C 88.875 278.292, 90 280.098, 90 281.014 C 90 284.035, 86.158 297.769, 84.151 301.923 C 82.798 304.723, 82.564 306, 83.402 306 C 86.596 306, 92.507 297.588, 93.416 291.750 C 93.737 289.688, 94.235 286.483, 94.521 284.629 C 94.996 281.556, 95.403 281.209, 99.119 280.711 C 101.406 280.404, 104.288 279.140, 105.682 277.832 C 107.738 275.904, 109.121 275.534, 113.677 275.696 C 120.445 275.937, 123.124 277.605, 126.605 283.743 C 128.088 286.359, 130.516 290.525, 132 293 C 133.484 295.475, 135.930 299.673, 137.437 302.329 C 142.438 311.144, 141.137 306.471, 134.429 291.529 C 130.786 283.415, 125.610 270.114, 122.925 261.970 C 113.632 233.780, 108.858 224, 104.390 224 C 103.061 224, 101.411 224.974, 100.578 226.250 M 349.132 228.753 C 348.549 229.842, 348.102 233.202, 348.138 236.220 C 348.177 239.462, 347.535 242.999, 346.569 244.867 C 345.670 246.605, 344.531 249.934, 344.038 252.264 C 343.545 254.594, 342.441 259.619, 341.585 263.431 C 340.729 267.243, 340.202 270.535, 340.413 270.747 C 340.625 270.958, 342.756 270.599, 345.149 269.947 C 347.542 269.296, 354 268.690, 359.500 268.600 L 369.500 268.437 369.822 265.664 C 370.028 263.881, 368.378 259.253, 365.198 252.696 C 362.478 247.088, 359.943 241.150, 359.565 239.500 C 359.186 237.850, 356.923 234.311, 354.534 231.636 C 350.488 227.105, 350.120 226.908, 349.132 228.753 M 103.118 237.250 C 101.538 245.352, 99.858 267.258, 100.748 268.148 C 101.185 268.585, 104.706 269.391, 108.573 269.939 C 112.440 270.488, 117.268 271.632, 119.302 272.482 C 123.836 274.376, 124.024 273.506, 120.603 266.446 C 116.189 257.336, 108.221 238.696, 106.627 233.750 C 105.587 230.523, 104.150 231.956, 103.118 237.250 M 160.619 241.807 C 160.345 242.252, 159.838 244.839, 159.494 247.557 C 158.839 252.728, 161.647 263.952, 167.436 279.295 C 169.435 284.594, 170.015 288.008, 170.070 294.795 C 170.117 300.589, 170.428 302.831, 171 301.500 C 172.852 297.191, 172.089 282.337, 169.569 273.642 C 168.232 269.028, 166.668 260.221, 166.094 254.072 C 165.520 247.922, 164.787 242.465, 164.466 241.945 C 163.752 240.789, 161.302 240.702, 160.619 241.807 M 163.649 325.685 C 163.311 326.022, 156.839 326.419, 149.267 326.567 C 110.767 327.315, 107.510 327.494, 105 328.995 C 103.625 329.818, 102.050 330.536, 101.500 330.592 C 100.950 330.648, 99.825 330.947, 99 331.258 C 95.778 332.470, 93 332.771, 93 331.906 C 93 331.408, 92.325 331, 91.500 331 C 90.675 331, 90 331.461, 90 332.025 C 90 333.625, 84.966 335.217, 83.570 334.058 C 82.753 333.380, 81.896 333.640, 80.826 334.890 C 79.411 336.543, 79.440 336.923, 81.148 339.104 C 82.938 341.389, 83.090 341.416, 84.424 339.680 C 86.367 337.151, 92.007 337.744, 93.049 340.586 C 93.790 342.606, 93.499 342.678, 83.934 342.832 L 74.053 342.991 75.026 340.430 C 76.583 336.337, 76.236 334, 74.071 334 C 71.400 334, 69 336.660, 69 339.620 C 69 341.458, 68.162 342.461, 65.750 343.509 L 62.500 344.922 65.250 344.961 C 67.419 344.992, 68.003 345.475, 68.015 347.250 C 68.024 348.488, 68.378 350.047, 68.803 350.715 C 69.973 352.557, 79.701 354.309, 84.370 353.518 C 97.727 351.256, 109.427 350.196, 117.412 350.524 C 124.893 350.831, 125.616 350.744, 121.500 350.033 C 116.370 349.147, 98.993 348.592, 86.438 348.913 C 79.119 349.100, 74 347.871, 74 345.927 C 74 345.119, 77.949 344.985, 88.075 345.451 C 95.816 345.806, 107.404 346.264, 113.825 346.467 C 120.246 346.671, 136.075 347.312, 149 347.893 C 161.925 348.474, 181.950 349.173, 193.500 349.447 C 205.050 349.720, 224.175 350.211, 236 350.536 C 247.825 350.862, 267.625 351.312, 280 351.536 C 292.375 351.761, 304.032 352.395, 305.903 352.946 C 307.775 353.497, 315.425 353.906, 322.903 353.854 C 341.678 353.723, 346.087 353.718, 357 353.817 C 362.225 353.864, 368.525 353.878, 371 353.847 C 373.475 353.817, 391.700 353.846, 411.500 353.913 C 444.511 354.023, 481.131 352.909, 493.500 351.417 C 496.250 351.085, 499.490 350.185, 500.700 349.416 C 503.215 347.819, 504.986 342.418, 504.994 336.321 C 505.003 329.971, 503.420 328.994, 493.179 329.032 C 485.444 329.060, 484.705 329.219, 486.385 330.491 C 487.422 331.276, 490.347 332.219, 492.885 332.587 C 500.508 333.692, 501.303 334.444, 500.550 339.839 C 500.109 342.990, 499.087 345.229, 497.394 346.750 C 493.617 350.142, 492 349.675, 492 345.191 C 492 343.096, 491.437 340.611, 490.750 339.668 C 489.690 338.214, 489.500 338.742, 489.500 343.137 C 489.500 346.691, 489.059 348.469, 488.098 348.794 C 487.032 349.155, 486.834 348.578, 487.271 346.384 C 487.612 344.671, 487.250 342.485, 486.381 341 C 485.016 338.670, 484.958 338.654, 485.533 340.772 C 486.277 343.518, 485.203 349, 483.921 349 C 483.414 349, 482.990 347.313, 482.978 345.250 L 482.956 341.500 481.027 345.750 C 479.234 349.699, 478.820 350, 475.179 350 L 471.260 350 470.733 345.322 C 470.434 342.666, 470.685 339.876, 471.315 338.867 C 471.925 337.890, 472.067 336.734, 471.630 336.297 C 470.350 335.017, 468 339.103, 468 342.609 C 468 346.918, 467.109 349, 465.265 349 C 464.057 349, 463.857 348.127, 464.293 344.750 L 464.841 340.500 463.581 344.500 C 462.820 346.917, 461.606 348.639, 460.515 348.851 C 459.169 349.113, 458.874 348.771, 459.358 347.509 C 461.148 342.845, 460.973 340.844, 459.117 344.750 C 457.480 348.196, 456.589 349, 454.409 349 C 452.930 349, 451.123 348.212, 450.392 347.250 C 449.127 345.583, 449.062 345.583, 449.032 347.250 C 449.014 348.212, 448.498 349, 447.883 349 C 446.649 349, 447.078 346.266, 449.088 341.330 C 450.144 338.735, 450.142 337.876, 449.076 336.591 C 447.290 334.439, 446 335.515, 446 339.158 C 446 343.025, 443.199 349, 441.386 349 C 440.513 349, 440 347.890, 440 346 C 440 344.350, 439.647 343, 439.216 343 C 438.784 343, 437.634 344.350, 436.659 346 C 434.356 349.899, 433.006 349.807, 432.977 345.750 L 432.954 342.500 431.352 345.750 C 430.116 348.259, 429.113 349, 426.957 349 C 422.450 349, 421 348.015, 421 344.952 C 421 343.393, 420.550 341.840, 420 341.500 C 419.422 341.143, 419 342.090, 419 343.741 C 419 347.481, 417.353 349, 413.300 349 C 410.100 349, 409.997 348.871, 409.900 344.750 L 409.799 340.500 408.872 344.458 C 407.823 348.935, 406.684 349.963, 402.750 349.985 C 400.230 349.999, 400.003 349.686, 400.035 346.250 C 400.055 344.188, 400.714 341.375, 401.500 340 C 403.147 337.119, 403.338 336, 402.185 336 C 400.954 336, 398 342.729, 398 345.534 C 398 346.890, 397.541 348, 396.981 348 C 395.983 348, 396.167 346.505, 398.091 339 C 399.326 334.183, 399.234 333.561, 397.500 335 C 396.675 335.685, 396 336.683, 396 337.219 C 396 337.754, 395.286 340.647, 394.414 343.647 L 392.828 349.103 388.179 348.801 L 383.530 348.500 383.834 344.352 C 384.001 342.070, 383.763 339.972, 383.305 339.688 C 382.847 339.405, 382.417 340.504, 382.351 342.131 C 382.179 346.344, 379.301 349.165, 375.551 348.799 C 372.224 348.473, 372.142 348.160, 373.240 340 C 373.814 335.740, 373.793 335.687, 372.838 339 C 371.507 343.619, 369.489 347.274, 367.615 348.465 C 365.257 349.962, 364.556 348.354, 365.800 344.300 C 366.424 342.266, 366.735 340.402, 366.491 340.158 C 366.247 339.914, 365.778 340.566, 365.450 341.607 C 364.057 346.018, 362.022 348.515, 359.572 348.816 C 356.595 349.183, 356.380 348.100, 358.585 343.835 C 359.575 341.921, 359.817 340.417, 359.229 339.829 C 358.359 338.959, 357.450 340.581, 355.616 346.273 C 354.944 348.361, 352.606 349.447, 350.511 348.643 C 349.393 348.213, 349.246 347.482, 349.923 345.702 C 350.455 344.304, 350.457 342.753, 349.927 341.917 C 349.248 340.843, 349.027 341.061, 349.015 342.816 C 348.996 345.774, 347.170 349.223, 346.005 348.503 C 345.504 348.193, 345.741 345.875, 346.544 343.225 C 348.206 337.749, 348.286 337, 347.207 337 C 346.771 337, 345.848 339.120, 345.155 341.711 C 343.743 346.988, 342.420 349, 340.359 349 C 338.608 349, 339.421 344.929, 342.117 340.193 C 344.203 336.529, 344.347 335.998, 343.250 336.004 C 342.424 336.008, 339 343.821, 339 345.701 C 339 346.351, 338.482 347.202, 337.848 347.594 C 336.678 348.317, 337.063 343.303, 338.565 338.250 C 338.977 336.861, 338.806 336, 338.117 336 C 337.502 336, 336.965 337.238, 336.923 338.750 C 336.881 340.262, 336.253 343.300, 335.528 345.500 L 334.210 349.500 334.105 345.700 C 333.983 341.286, 331.382 335.646, 329.892 336.567 C 329.236 336.972, 329.382 337.790, 330.298 338.849 C 332.328 341.197, 333.180 346.610, 331.708 347.812 C 331.043 348.354, 328.475 348.956, 326 349.149 C 321.598 349.492, 321.504 349.438, 321.702 346.648 C 321.813 345.079, 322.826 342.028, 323.952 339.867 C 326.365 335.237, 326.422 334.901, 324.670 335.573 C 323.939 335.854, 322.314 338.990, 321.060 342.542 C 319.806 346.094, 318.380 349, 317.890 349 C 316.561 349, 316.791 347.654, 319 342.500 C 320.100 339.934, 321 337.421, 321 336.917 C 321 335.535, 318.985 335.816, 318.611 337.250 C 317.046 343.251, 314.519 350, 313.838 350 C 312.743 350, 312.779 349.580, 314.125 346.625 C 315.654 343.270, 314.406 335, 312.371 335 C 311.257 335, 311.057 335.586, 311.604 337.250 C 313.625 343.408, 310.747 350, 306.036 350 C 302.400 350, 301.697 348.928, 303.030 345.421 C 304.419 341.768, 302.659 339.746, 300.536 342.554 C 299.467 343.967, 299.055 344.103, 299.032 343.050 C 298.976 340.499, 297.174 343.319, 296.827 346.500 C 296.550 349.043, 296.024 349.546, 293.375 349.804 C 287.028 350.422, 284.857 343.700, 289.589 338.077 C 291.313 336.027, 291.714 335, 290.789 335 C 290.025 335, 288.860 335.540, 288.200 336.200 C 287.267 337.133, 287 336.882, 287 335.069 C 287 332.935, 287.316 332.789, 290.750 333.344 C 293.268 333.751, 295.328 334.963, 297.021 337.032 C 299.717 340.329, 302.442 340.334, 303.486 337.045 C 304.272 334.567, 316.904 332.473, 325.254 333.437 C 328.689 333.834, 334.425 334.313, 338 334.502 C 341.575 334.690, 345.400 334.909, 346.500 334.987 C 347.600 335.065, 349.738 334.822, 351.250 334.448 C 353.711 333.838, 354 334.036, 354 336.324 C 354 337.731, 354.450 339.160, 355 339.500 C 355.550 339.840, 356 339.416, 356 338.559 C 356 337.702, 356.523 337.112, 357.161 337.250 C 357.800 337.387, 358.619 336.375, 358.981 335 C 359.343 333.624, 360.282 332.598, 361.069 332.719 C 365.705 333.427, 368.646 334.512, 369.718 335.911 C 370.388 336.785, 370.951 337.009, 370.968 336.408 C 370.986 335.808, 372.740 334.795, 374.866 334.158 C 379.942 332.637, 381 332.696, 381 334.500 C 381 335.325, 381.450 336, 382 336 C 382.550 336, 383 335.325, 383 334.500 C 383 333.503, 383.997 333, 385.974 333 C 388.268 333, 389.304 333.687, 390.500 336 C 391.353 337.650, 392.516 339, 393.085 339 C 393.653 339, 393.832 338.537, 393.483 337.972 C 392.639 336.607, 396.962 333.075, 399.527 333.033 C 400.643 333.015, 402.584 333.721, 403.842 334.602 C 405.873 336.024, 406.263 336.035, 407.315 334.700 C 409.062 332.482, 416.004 331.996, 418.924 333.888 C 420.739 335.064, 421.450 335.149, 421.757 334.229 C 422.476 332.073, 425.819 332.903, 429.523 336.154 L 433.116 339.309 432.449 336.654 C 431.471 332.757, 433.745 333.314, 434.881 337.250 L 435.820 340.500 435.910 337.367 C 435.982 334.875, 436.498 334.138, 438.435 333.768 C 439.775 333.512, 441.447 333.658, 442.152 334.094 C 442.856 334.529, 443.990 334.423, 444.670 333.859 C 445.351 333.294, 448.041 332.757, 450.649 332.666 C 454.766 332.522, 455.555 332.824, 456.644 334.964 C 457.723 337.085, 457.990 337.191, 458.554 335.720 C 458.915 334.780, 459.561 334.229, 459.991 334.495 C 460.422 334.761, 461.329 334.308, 462.009 333.489 C 463.444 331.760, 467.897 331.543, 471.203 333.040 C 472.885 333.802, 474.570 333.704, 477.500 332.673 L 481.500 331.265 477.500 330.050 C 474.077 329.010, 434.948 327.407, 421.500 327.755 C 415.286 327.916, 406.899 327.985, 402.500 327.911 C 400.300 327.874, 388.600 328.125, 376.500 328.469 C 364.400 328.812, 347.975 329.242, 340 329.423 C 332.025 329.604, 320.882 330.282, 315.238 330.928 C 309.594 331.574, 304.517 331.820, 303.956 331.473 C 303.396 331.127, 296.539 330.639, 288.719 330.390 C 280.898 330.141, 271.350 329.274, 267.500 328.464 C 256.923 326.239, 222.878 325.324, 188.654 326.346 C 176.130 326.720, 167.101 326.589, 166.036 326.019 C 165.061 325.497, 163.987 325.347, 163.649 325.685 M 189.299 333.068 C 187.539 333.598, 185.828 334.470, 185.497 335.005 C 185.132 335.596, 184.025 335.407, 182.675 334.523 C 180.145 332.865, 176 333.544, 176 335.617 C 176 337.465, 174.361 337.384, 173.638 335.500 C 172.940 333.679, 168.646 333.516, 167.203 335.256 C 166.630 335.946, 165.862 337.702, 165.497 339.158 C 164.913 341.482, 165.177 341.872, 167.666 342.358 C 170.671 342.945, 178.708 343.344, 183.187 343.129 C 185.434 343.021, 185.939 342.468, 186.277 339.750 L 186.680 336.500 186.840 339.750 C 187.056 344.138, 189 343.913, 189 339.500 C 189 337.575, 189.450 336, 190 336 C 190.550 336, 191 337.827, 191 340.059 C 191 342.510, 191.396 343.873, 192 343.500 C 192.550 343.160, 193 341.585, 193 340 C 193 338.415, 193.520 336.797, 194.156 336.404 C 195.006 335.878, 195.139 337.160, 194.660 341.239 C 193.939 347.371, 194.456 348, 200.213 348 C 203.174 348, 203.246 347.890, 202.684 344.250 C 202.365 342.188, 201.803 339.488, 201.435 338.250 C 201.068 337.012, 201.179 336, 201.682 336 C 202.890 336, 205 341.929, 205 345.321 C 205 346.794, 205.450 348, 206 348 C 206.901 348, 207.102 346.819, 207.480 339.288 C 207.541 338.071, 207.971 336.721, 208.436 336.288 C 208.900 335.854, 208.995 338.349, 208.647 341.831 C 208.165 346.650, 208.311 348.064, 209.257 347.753 C 209.979 347.516, 210.709 344.865, 211 341.422 C 211.480 335.736, 211.544 335.620, 212.613 338.505 C 213.225 340.158, 213.511 342.971, 213.249 344.755 C 212.910 347.065, 213.166 347.996, 214.137 347.985 C 216.937 347.953, 217.888 346.309, 218.190 340.978 C 218.361 337.959, 218.949 335.619, 219.500 335.765 C 220.484 336.026, 220.832 343.546, 219.951 345.500 C 218.854 347.933, 221.642 346.990, 222.864 344.515 C 224.356 341.493, 226.155 342.691, 225.261 346.111 C 224.989 347.150, 225.269 348, 225.883 348 C 226.498 348, 227 347.100, 227 346 C 227 344.900, 227.633 344, 228.406 344 C 229.295 344, 229.630 344.698, 229.317 345.897 C 228.906 347.468, 229.545 347.916, 233.034 348.506 C 238.370 349.407, 239.275 348.214, 238.538 341.250 C 238.203 338.079, 238.374 336, 238.972 336 C 240.439 336, 241.320 340.574, 240.719 345.060 C 240.329 347.968, 240.545 349, 241.546 349 C 242.465 349, 243.127 346.998, 243.606 342.768 C 244.081 338.564, 244.537 337.179, 245.005 338.514 C 245.387 339.602, 245.475 342.474, 245.202 344.896 C 244.636 349.923, 246.356 349.970, 247.359 344.955 C 247.738 343.060, 248.402 342.131, 249.078 342.548 C 249.756 342.967, 249.928 344.570, 249.525 346.717 L 248.871 350.205 254.185 349.482 C 259.899 348.704, 260.922 347.887, 261.055 344 C 261.102 342.625, 261.565 340.600, 262.083 339.500 C 262.784 338.011, 262.924 338.649, 262.631 342 C 262.415 344.475, 262.072 347.148, 261.869 347.941 C 261.666 348.733, 262.235 349.543, 263.134 349.742 C 265.134 350.183, 267 345.408, 267 339.851 C 267 337.733, 267.430 336, 267.955 336 C 269.343 336, 270.330 342.429, 269.566 346.500 C 269.162 348.653, 269.304 350, 269.936 350 C 270.980 350, 271.654 347.884, 272.326 342.500 C 272.532 340.850, 272.768 341.921, 272.850 344.881 L 273 350.262 276.624 349.674 C 278.617 349.350, 280.479 348.854, 280.762 348.571 C 281.045 348.288, 280.848 345.892, 280.325 343.246 C 279.802 340.599, 279.700 337.214, 280.099 335.722 C 280.498 334.230, 280.470 332.791, 280.038 332.523 C 278.954 331.854, 260 333.157, 260.001 333.901 C 260.002 334.230, 257.527 334.346, 254.501 334.157 C 249.992 333.877, 249 334.102, 249 335.407 C 249 337.736, 247.326 337.353, 246.678 334.877 C 246.150 332.859, 245.734 332.790, 238.311 333.480 C 229.568 334.293, 229 334.486, 229 336.648 C 229 337.800, 228.258 337.554, 225.998 335.652 C 223.175 333.276, 222.354 333.131, 212.248 333.223 C 206.337 333.277, 199.475 333.048, 197 332.713 C 194.525 332.378, 191.060 332.538, 189.299 333.068 M 283.015 335.750 C 283.027 337.893, 283.245 338.169, 284 337 C 285.264 335.043, 285.264 333, 284 333 C 283.450 333, 283.007 334.238, 283.015 335.750 M 128.250 334.662 C 127.563 334.940, 127 336.059, 127 337.149 C 127 338.239, 126.550 339.973, 126 341 C 125.069 342.740, 125.434 342.859, 131.250 342.720 C 134.687 342.637, 141.775 342.737, 147 342.941 C 156.614 343.317, 161 342.672, 161 340.883 C 161 339.243, 158.008 334, 157.072 334 C 156.590 334, 155.697 335.431, 155.087 337.180 L 153.979 340.360 151.344 337.180 C 147.989 333.130, 146.375 333.167, 144.634 337.333 C 143.868 339.167, 142.512 340.667, 141.621 340.667 C 140.451 340.667, 140 339.740, 140 337.333 C 140 334.617, 139.612 334, 137.906 334 C 136.654 334, 135.603 334.803, 135.290 336 C 135.002 337.100, 134.422 338, 134 338 C 133.578 338, 132.998 337.100, 132.710 336 C 132.201 334.054, 130.800 333.633, 128.250 334.662 M 111.290 337 C 110.770 338.989, 109 339.829, 109 338.087 C 109 337.585, 107.637 337.688, 105.971 338.317 C 104.169 338.997, 103.059 340.066, 103.230 340.955 C 103.457 342.133, 105.660 342.527, 113.662 342.817 C 123.241 343.165, 123.843 343.069, 124.471 341.093 C 125.535 337.738, 124.170 335, 121.433 335 C 119.691 335, 119 335.552, 119 336.941 C 119 338.009, 118.550 339.160, 118 339.500 C 117.433 339.851, 117 339.010, 117 337.559 C 117 335.471, 116.522 335, 114.406 335 C 112.654 335, 111.643 335.649, 111.290 337 M 96 340.883 C 96 342.094, 96.885 342.936, 98.476 343.240 C 101.488 343.816, 101.931 343.452, 101.275 340.942 C 100.582 338.295, 96 338.244, 96 340.883 M 163.079 340.583 C 163.127 341.748, 163.364 341.985, 163.683 341.188 C 163.972 340.466, 163.936 339.603, 163.604 339.271 C 163.272 338.939, 163.036 339.529, 163.079 340.583 M 6.750 511.743 C 10.738 511.932, 17.263 511.932, 21.250 511.743 C 25.238 511.553, 21.975 511.397, 14 511.397 C 6.025 511.397, 2.762 511.553, 6.750 511.743 " stroke="none" fill="black" fill-rule="evenodd"/>
</svg>